<?xml version="1.0" encoding="utf-8"?>
<!-- Generator: Adobe Illustrator 24.1.3, SVG Export Plug-In . SVG Version: 6.00 Build 0)  -->
<svg version="1.1" id="Capa_1" xmlns="http://www.w3.org/2000/svg" xmlns:xlink="http://www.w3.org/1999/xlink" x="0px" y="0px"
	 viewBox="0 0 2122 2122" style="enable-background:new 0 0 2122 2122;" xml:space="preserve">
<path d="M1011.3,1780.4c2.4,2.2,4.7,4.9,8.1,5.1c3,0.1,5.8-2.7,5.7-5.7c-0.2-3.4-2.9-5.7-5.1-8.1c-2.2-2.5-6.4-2.3-8.6,0
	C1009,1774,1008.8,1778.1,1011.3,1780.4L1011.3,1780.4z"/>
<path d="M1695.8,1217c6.7,1.8,13.4,2.9,20.3,3.7c-0.2-1.1-0.3-2.3-0.5-3.4c-7.2,1.6-13.4,4.5-19.7,8.2c0.8,1,1.6,2.1,2.4,3.1
	c4.5-5.1,9-10.3,13.5-15.4c-1.1-0.5-2.3-0.9-3.4-1.4c0,7.1-1.1,14.1-1.2,21.1c1.3-0.3,2.6-0.7,3.8-1c-1.9-3.7-4.3-7.2-6.6-10.7
	c-1-1.5-2-3-3.1-4.4c-0.4-0.5-0.7-0.8-1.2-0.9c-1.3-0.4-0.6-0.6,0.1,0.4c-1.1-1.5-3.6-0.1-2.5,1.5c-0.4-0.6-0.2-1.4-0.2-0.2
	c0,0.5,0,1,0.3,1.4c1,1.5,2,3,3,4.5c2.4,3.4,4.8,6.9,6.7,10.6c1,1.9,3.8,0.9,3.8-1c0-7.1,1-14.1,1-21.1c0-1.7-2.2-2.8-3.4-1.4
	c-4.5,5.1-9,10.3-13.4,15.4c-1.4,1.6,0.5,4.5,2.4,3.1c5.6-4,11.9-6.7,18.6-8.3c1.9-0.4,1.5-3.6-0.5-3.4c-6.8,0.6-13.3-2.7-20.1-1.8
	C1695.2,1215.5,1694.9,1216.7,1695.8,1217L1695.8,1217z"/>
<path d="M409.6,1203.6c13.4,3.6,26.9,5.5,40.6,7.4c0-2.3,0-4.6,0-6.9c-14.5,3.1-27.8,9.1-40.3,16.8c1.6,2.1,3.3,4.2,4.9,6.4
	c9.2-10.5,18.4-21,27.6-31.5c-2.3-1-4.7-1.9-7-2.9c0,14.5-2.3,28.8-2.4,43.3c2.6-0.7,5.2-1.4,7.9-2.1c-3.5-7.1-8-13.7-12.4-20.3
	c-2.1-3.2-4.2-6.3-6.6-9.3c-0.8-1-1.5-2.2-2.5-2.8c-0.5-0.3-1.2-0.5-1.7-0.7c-1.2-0.4-0.1-0.3,0.9,1.1c-2.2-3-7.3-0.1-5.1,3
	c-0.9-1.2-0.4-1.2-0.4,0.2c0,1.5,0.9,2.6,1.7,3.8c2,3.1,4.2,6.1,6.3,9.1c4.5,6.5,9,13.1,12.6,20.1c1.9,3.8,7.9,1.9,7.9-2.1
	c-0.1-14.5,2.2-28.8,2.1-43.3c0-3.4-4.6-5.7-7-2.9c-9.2,10.5-18.4,21-27.5,31.6c-2.9,3.3,0.9,9.2,4.9,6.4
	c11.5-8.1,24.4-13.8,38.1-16.9c3.9-0.9,3.1-7.6-1-7c-13.9,1.8-27.6-5.8-41.6-3.6C407.9,1200.6,408.1,1203.1,409.6,1203.6
	L409.6,1203.6z"/>
<path d="M939.2,459c13.4,3.6,26.9,5.5,40.6,7.4c0-2.3,0-4.6,0-6.9c-14.5,3.1-27.8,9.1-40.3,16.8c1.6,2.1,3.3,4.2,4.9,6.4
	c9.2-10.5,18.4-21,27.6-31.5c-2.3-1-4.7-1.9-7-2.9c0,14.5-2.3,28.8-2.4,43.3c2.6-0.7,5.2-1.4,7.9-2.1c-3.5-7.1-8-13.7-12.4-20.2
	c-2.1-3.2-4.2-6.3-6.6-9.3c-0.8-1-1.5-2.2-2.6-2.8c-0.5-0.3-1.2-0.5-1.7-0.7c-1.2-0.4-0.1-0.3,0.9,1.1c-2.2-3-7.3-0.1-5.1,3
	c-0.9-1.2-0.4-1.2-0.4,0.2c0,1.5,0.9,2.6,1.7,3.8c2,3.1,4.2,6.1,6.3,9.1c4.5,6.5,9,13.1,12.6,20.1c1.9,3.8,7.9,1.9,7.9-2.1
	c-0.1-14.5,2.2-28.8,2.1-43.3c0-3.4-4.6-5.7-7-2.9c-9.2,10.5-18.4,21-27.5,31.6c-2.9,3.3,0.9,9.2,4.9,6.4
	c11.5-8.1,24.4-13.8,38.1-16.9c3.9-0.9,3.1-7.6-1-7c-13.9,1.8-27.6-5.8-41.6-3.6C937.6,456,937.8,458.6,939.2,459L939.2,459z"/>
<path d="M1509.9,355.4c13.4,3.6,26.9,5.5,40.6,7.4c0-2.3,0-4.6,0-6.9c-14.5,3.1-27.8,9.1-40.3,16.8c1.6,2.1,3.3,4.2,4.9,6.4
	c9.2-10.5,18.4-21,27.6-31.5c-2.3-1-4.7-1.9-7-2.9c0,14.5-2.3,28.8-2.4,43.3c2.6-0.7,5.2-1.4,7.9-2.1c-3.5-7.1-8-13.7-12.4-20.2
	c-2.1-3.2-4.2-6.3-6.6-9.3c-0.8-1-1.5-2.2-2.5-2.8c-0.5-0.3-1.2-0.5-1.7-0.7c-1.2-0.4-0.1-0.3,0.9,1.1c-2.2-3-7.3-0.1-5.1,3
	c-0.9-1.2-0.4-1.2-0.4,0.2c0,1.5,0.9,2.6,1.7,3.8c2,3.1,4.2,6.1,6.3,9.1c4.5,6.5,9,13.1,12.6,20.1c1.9,3.8,7.9,1.9,7.9-2.1
	c-0.1-14.5,2.2-28.8,2.1-43.3c0-3.4-4.6-5.7-7-2.9c-9.2,10.5-18.4,21-27.5,31.6c-2.9,3.3,0.9,9.2,4.9,6.4
	c11.5-8.1,24.4-13.8,38.1-16.9c3.9-0.9,3.1-7.6-1-7c-13.9,1.8-27.6-5.8-41.6-3.6C1508.2,352.5,1508.4,355,1509.9,355.4L1509.9,355.4
	z"/>
</svg>
