<svg id="OBJECTS" xmlns="http://www.w3.org/2000/svg" viewBox="0 0 250 250"><defs><style>.cls-1{fill:#ed572f;}.cls-2{fill:#ea902f;}.cls-3{fill:#f4bd31;}.cls-4{fill:#ffe269;}.cls-5{fill:#ea3453;}.cls-6{fill:#aa2b46;}.cls-7{fill:#fff;}.cls-8{fill:#dad5e2;}.cls-9{fill:#e0dedc;}.cls-10{fill:#384460;}.cls-11{fill:#89bbe8;}.cls-12{fill:#bbe2ff;}.cls-13{fill:#b3b0b5;}</style></defs><path class="cls-1" d="M142.05,192.81c0,11.8-21.36,44.59-21.36,44.59s-21.36-32.79-21.36-44.59,9.56-26.92,21.36-26.92S142.05,181,142.05,192.81Z"/><path class="cls-2" d="M137.15,189.17c0,9.1-16.46,34.37-16.46,34.37s-16.46-25.27-16.46-34.37,7.37-20.74,16.46-20.74S137.15,180.08,137.15,189.17Z"/><path class="cls-3" d="M133.51,184.85c0,7.08-12.82,26.77-12.82,26.77s-12.83-19.69-12.83-26.77,5.74-16.16,12.83-16.16S133.51,177.77,133.51,184.85Z"/><path class="cls-4" d="M129.07,181.14c0,4.62-8.38,17.49-8.38,17.49s-8.38-12.87-8.38-17.49,3.75-10.57,8.38-10.57S129.07,176.51,129.07,181.14Z"/><path class="cls-5" d="M90.32,119.32c-34.63,34.63-20.67,43,0,81.33l11.78-26.39Z"/><path class="cls-5" d="M151.05,119.32c34.63,34.63,20.67,43,0,81.33l-11.78-26.39Z"/><path class="cls-6" d="M151.05,200.65c6.48-12,12.3-21.09,16.17-29-8.13.89-19.72-2.56-21.25-28.66l-6.7,31.22Z"/><path class="cls-6" d="M90.32,200.65l11.78-26.39L90.5,120.19c3.21,30.88,6.4,56.38-12.56,58.62C81.42,185,85.7,192.08,90.32,200.65Z"/><path class="cls-7" d="M154.22,79.93C153,43.77,120.7,14.6,120.7,14.6S88.41,43.77,87.17,79.93s14.93,94.33,14.93,94.33h37.2S155.46,116.09,154.22,79.93Z"/><path class="cls-8" d="M104.28,33.88c-8.19,11.8-16.49,28.06-17.11,46.05-1.23,36.16,14.93,94.33,14.93,94.33h37.2s.93-3.37,2.33-9C104.87,172.29,82,132.93,104.28,33.88Z"/><path class="cls-5" d="M143.82,44.72A125.68,125.68,0,0,0,120.7,14.6,125.68,125.68,0,0,0,97.58,44.72Z"/><path class="cls-6" d="M97.58,44.72h46.24c-.26-.47-.52-.94-.79-1.41C125.12,45,98.66,43.42,120.7,14.6A125.68,125.68,0,0,0,97.58,44.72Z"/><circle class="cls-9" cx="119.65" cy="81.41" r="19.66" transform="translate(-8.52 14.21) rotate(-6.56)"/><circle class="cls-6" cx="119.65" cy="81.41" r="18.31" transform="translate(-22.52 108.45) rotate(-45)"/><circle class="cls-5" cx="119.65" cy="81.41" r="17.16" transform="translate(-5.39 8.55) rotate(-4)"/><circle class="cls-10" cx="119.65" cy="81.41" r="14.51" transform="translate(-6.52 10.53) rotate(-4.9)"/><circle class="cls-11" cx="119.65" cy="81.41" r="13.6" transform="translate(-6.15 9.87) rotate(-4.61)"/><path class="cls-12" d="M110,91a13.6,13.6,0,0,0,11.52,3.84V68A13.57,13.57,0,0,0,110,71.8c-.11.11-.21.24-.33.36v18.5C109.82,90.78,109.92,90.91,110,91Z"/><path class="cls-12" d="M124.9,68.87V94A13.63,13.63,0,0,0,128,92.13V70.69A13.27,13.27,0,0,0,124.9,68.87Z"/><circle class="cls-13" cx="99.21" cy="46.99" r="0.78"/><path class="cls-13" d="M105.92,47a.78.78,0,1,1-.78-.78A.78.78,0,0,1,105.92,47Z"/><circle class="cls-13" cx="111.07" cy="46.99" r="0.78"/><path class="cls-13" d="M117.78,47a.78.78,0,1,1-.78-.78A.78.78,0,0,1,117.78,47Z"/><path class="cls-13" d="M123.71,47a.78.78,0,1,1-.78-.78A.78.78,0,0,1,123.71,47Z"/><circle class="cls-13" cx="128.86" cy="46.99" r="0.78"/><path class="cls-13" d="M135.57,47a.78.78,0,1,1-.78-.78A.78.78,0,0,1,135.57,47Z"/><circle class="cls-13" cx="140.72" cy="46.99" r="0.78" transform="translate(7.99 113.27) rotate(-45)"/><path class="cls-13" d="M105.23,172a.86.86,0,1,1-.86-.86A.86.86,0,0,1,105.23,172Z"/><path class="cls-13" d="M111.77,172a.86.86,0,1,1-1.72,0,.86.86,0,1,1,1.72,0Z"/><path class="cls-13" d="M118.32,172a.86.86,0,1,1-1.72,0,.86.86,0,1,1,1.72,0Z"/><path class="cls-13" d="M124.87,172a.86.86,0,1,1-.86-.86A.85.85,0,0,1,124.87,172Z"/><path class="cls-13" d="M131.42,172a.86.86,0,1,1-.86-.86A.86.86,0,0,1,131.42,172Z"/><path class="cls-13" d="M138,172a.86.86,0,1,1-.86-.86A.86.86,0,0,1,138,172Z"/><path class="cls-5" d="M120.7,117.14v83.51a336,336,0,0,1-4.23-53.07C116.47,118.16,120.7,117.14,120.7,117.14Z"/><path class="cls-6" d="M120.7,117.14v83.51a336,336,0,0,0,4.23-53.07C124.93,118.16,120.7,117.14,120.7,117.14Z"/><path class="cls-7" d="M121.31,17.49s8.48,7.41,19.41,24.59C140.72,42.08,132.13,32,121.31,17.49Z"/></svg>