<?xml version="1.0" encoding="utf-8"?>
<!-- Generator: Adobe Illustrator 24.1.3, SVG Export Plug-In . SVG Version: 6.00 Build 0)  -->
<svg version="1.1" id="Capa_1" xmlns="http://www.w3.org/2000/svg" xmlns:xlink="http://www.w3.org/1999/xlink" x="0px" y="0px"
	 viewBox="0 0 2122 2122" style="enable-background:new 0 0 2122 2122;" xml:space="preserve">
<style type="text/css">
	.st0{fill:#FFFFFF;stroke:#000000;stroke-width:7.9495;stroke-linecap:round;stroke-linejoin:round;stroke-miterlimit:10;}
</style>
<g>
	<g>
		<path d="M1283.1,1211.4c0.8,0,1.5,0.1,2.3,0.1c-0.9-0.2-1.7-0.5-2.6-0.7c5.8,4.1,13.3-2.3,11.2-8.8c-1.5-4.6-5.7-6.7-10-8.1
			c-2.5-0.8-5.1,1.8-4.3,4.3c0.4,1.3,0.7,2.6,1.4,3.9c0.2,0.5,0.5,1,0.7,1.5c-0.9-2,0.9,1.9,0.6,1.4c0.3,0.4,0.9,1.8,0.1,0
			c0.1,0.2,0.1,0.3,0.1,0.5c-0.2-0.8-0.2-1.5,0-2.3c0.3-1.2,1-2.1,2.1-2.7c-0.5,0.3-0.3,0.2,0.6-0.2c-2.1,0.8-3.2,1.7-4.4,3.6
			c1-0.8,2-1.6,3.1-2.3c-1.6,0.3,1-0.1-0.9,0.1c-2.7,0.2-4.9,2.1-4.9,4.9C1278.1,1209.3,1280.4,1211.2,1283.1,1211.4L1283.1,1211.4z
			"/>
	</g>
</g>
<g>
	<g>
		<path d="M1227.6,1092.9c8.6,0,8.6-13.3,0-13.3S1219,1092.9,1227.6,1092.9L1227.6,1092.9z"/>
	</g>
</g>
<g>
	<g>
		<path d="M1482.1,1106.1c0-0.2,0.1-0.4,0.1-0.6c0-0.1,0-0.3,0.1-0.4c0.2-1.4,0.4-0.2-1.1,1.3c1.2-1.2,1.9-2.8,1.8-4.4
			c-0.1-0.9-0.2-1.8-0.4-2.6c-0.4-2.4-3-4.1-5.4-4.1s-4.9,1.7-5.4,4.1c-0.5,2.5-0.8,5,1.3,7c0.6,0.7,0.3,0.1-1.1-1.8
			c0,0.2,0,0.3,0.1,0.5c0,0.2,0.1,0.4,0.1,0.6s0.1,0.4,0.1,0.6c0.3,2.2,2.8,3.7,4.9,3.7S1481.8,1108.3,1482.1,1106.1L1482.1,1106.1z
			"/>
	</g>
</g>
<g>
	<g>
		<path d="M1509.6,1210.9c1.9-0.2,4.4,0,5.9-1.1c1.1-0.8,1.9-1.9,1.9-3.3s-0.8-2.5-1.9-3.3c-1.5-1.1-4-1-5.9-1.1
			c-2.4-0.2-4.5,2.2-4.5,4.5S1507.2,1211.1,1509.6,1210.9L1509.6,1210.9z"/>
	</g>
</g>
<g>
	<g>
		<path d="M1692.9,1164.8c0-1.5-0.1-3-0.1-4.5c0-1.4-0.9-2.3-2.1-2.8c-0.4-0.1-1.2-0.1-1.5,0c-1.2,0.5-2.1,1.4-2.1,2.8
			c0,1.5-0.1,3-0.1,4.5c0,1.6,1.4,3,3,3S1692.9,1166.5,1692.9,1164.8L1692.9,1164.8z"/>
	</g>
</g>
<g>
	<g>
		<path d="M1554.3,1004c0.2,0.1,0.4,0.1,0.6,0.2c-1.4-1.4-2.8-2.8-4.2-4.2c0,0.1,0.1,0.2,0.1,0.3c1.1,3,3.1,5.4,6.3,6.3
			c4.1,1.1,7.8-0.8,10.1-4.1c2.4-3.5,1.6-8.6-1.3-11.5c-2.2-2.2-6.2-3.7-9.2-2.6c-1.3,0.4-2.4,1-3.3,1.9c-1.5,1.5-2,3.2-2.2,5.3
			c-0.1,1.3,0.4,2.1,0.6,3.3c-0.1-0.7-0.2-1.5-0.3-2.2c0,0.1,0,0.2,0,0.3c0.1-0.7,0.2-1.5,0.3-2.2c0,0.1,0,0.1,0,0.2
			c0.3-0.7,0.6-1.4,0.9-2c0,0.1-0.1,0.1-0.1,0.2c0.4-0.6,0.9-1.2,1.3-1.7l-0.1,0.1c0.6-0.5,1.2-0.9,1.8-1.4l-0.1,0.1
			c0.7-0.3,1.4-0.6,2.1-0.9c-0.1,0-0.2,0-0.2,0.1c0.8-0.1,1.6-0.2,2.4-0.3c-0.1,0-0.1,0-0.2,0c-4.9,0.2-9,3.9-9,9c0,0.2,0,0.3,0,0.5
			c1.5-1.9,2.9-3.9,4.4-5.8c-0.2,0.1-0.4,0.1-0.6,0.2c-2.5,0.7-4.3,3-4.3,5.6C1550,1001,1551.8,1003.4,1554.3,1004L1554.3,1004z"/>
	</g>
</g>
<g>
	<g>
		<path d="M1611.3,1260.5c0.5,0,1,0,1.6,0c-2.2-1.3-4.5-2.6-6.7-3.9c0.1,0.2,0.3,0.4,0.4,0.7c2.1,3.7,6.7,5.5,10.8,4.4
			c2.4-0.7,4.5-2.3,5.7-4.4s1.8-5,1-7.4c-0.8-2.3-2.1-4.5-4.4-5.6c0.9,0.9,1.8,1.8,2.6,2.6c-0.2-0.3-0.4-0.6-0.6-0.9
			c-1.4-2-3.2-3.3-5.7-3.3c-1.2,0-2.3,0.3-3.3,0.9s-1.8,1.4-2.4,2.4c-0.1,0.1-0.1,0.2-0.2,0.3c0.4-0.5,0.7-0.9,1.1-1.4
			c-0.1,0.1-0.2,0.2-0.2,0.3c2.3-0.6,4.6-1.2,7-1.8c-0.1,0-0.2-0.1-0.3-0.1c1.9,1.4,3.7,2.9,5.6,4.3l0,0c-1.4-3-5.2-4.7-8.3-4.7
			c-4.3,0-8,2.9-9.2,7c-0.1,0.2-0.1,0.5-0.2,0.7c2.5-1.9,5-3.8,7.5-5.7c-0.5,0-1,0-1.6,0c-4.3,0-7.8,3.6-7.8,7.8
			C1603.5,1256.9,1607.1,1260.5,1611.3,1260.5L1611.3,1260.5z"/>
	</g>
</g>
<g>
	<g>
		<path d="M1785.2,1018.6c0.7,0.1,1.3,0.3,2,0.4c-0.6-0.2-1.1-0.5-1.7-0.7c0.1,0.1,0.2,0.1,0.4,0.2c4,2.4,9.3,0.9,11.6-3
			c1.2-2,1.5-4.4,0.9-6.6c-0.4-1.4-1.1-2.7-2.2-3.8s-2.3-1.8-3.8-2.2c-1.2-0.5-2.7-0.6-4-0.8c-1-0.3-2-0.3-3,0s-1.8,0.8-2.5,1.5
			s-1.2,1.6-1.5,2.5c-0.3,1-0.3,2,0,3c0.1,1,0.3,2,0.5,3c-0.1-0.7-0.2-1.4-0.3-2.1c0,0.2,0.1,0.5,0.1,0.7c0.1,1.9,0.4,3.3,1.4,5
			c1.4-3.4,2.8-6.8,4.2-10.2c-0.7,0.2-1.3,0.3-2,0.4c-2.8,0.6-4.8,3.5-4.8,6.3C1780.5,1015,1782.4,1018,1785.2,1018.6L1785.2,1018.6
			z"/>
	</g>
</g>
<g>
	<g>
		<path d="M957.9,696.2c-0.2,1.1-0.5,2.2-0.7,3.3c0.2-0.6,0.5-1.1,0.7-1.7c0,0,0,0.1-0.1,0.1c0.4-0.5,0.8-1,1.1-1.5
			c-0.1,0.1-0.2,0.3-0.4,0.4c-1.8,2.1-2.7,4.7-2,7.5c0.9,3.3,4,5.6,7.4,5.6c2.7,0,5.3-1.5,6.6-3.8c1.8-3.1,1.1-6.7-1.2-9.3
			c-0.1-0.1-0.2-0.3-0.4-0.4c0.4,0.5,0.7,1,1.1,1.5c0,0,0-0.1-0.1-0.1c0.2,0.6,0.5,1.1,0.7,1.7c-0.2-1.1-0.5-2.2-0.7-3.3
			c-0.6-2.8-3.5-4.7-6.2-4.7S958.5,693.4,957.9,696.2L957.9,696.2z"/>
	</g>
</g>
<g>
	<g>
		<path d="M880.9,895.7c10.7,0,10.7-16.6,0-16.6C870.2,879.2,870.2,895.7,880.9,895.7L880.9,895.7z"/>
	</g>
</g>
<g>
	<g>
		<path d="M723.7,820.5c9,0,9-14,0-14C714.6,806.5,714.6,820.5,723.7,820.5L723.7,820.5z"/>
	</g>
</g>
<g>
	<g>
		<path d="M709.8,670.4c6.3,0,6.3-9.8,0-9.8C703.5,660.7,703.5,670.4,709.8,670.4L709.8,670.4z"/>
	</g>
</g>
<g>
	<g>
		<path d="M830,772.1c6.2,0,6.2-9.6,0-9.6C823.8,762.4,823.8,772.1,830,772.1L830,772.1z"/>
	</g>
</g>
<g>
	<g>
		<path d="M1001.2,1349.7c0.5,0.6,1,1.2,1.5,1.8c-0.3-0.4-0.7-0.9-1-1.3c0.1,0.1,0.1,0.2,0.2,0.3c-0.2-0.5-0.4-1.1-0.7-1.6l0,0
			c-0.1-0.6-0.2-1.2-0.2-1.8l0,0c0.3-1.1,0.6-2.2,0.9-3.3l0,0c1.3-1,2.6-2,4-3l0,0c1.2,0,2.4,0,3.5,0h-0.1c0.5,0.2,1.1,0.4,1.6,0.7
			c-0.5-0.2-1-0.6-1.5-0.9c-2.1-1.2-4.8-2.1-7.2-1.1c-2.5,1.1-5.2,2.4-5.2,5.7c0,1.6,0.8,2.8,1.8,4c-1.4-1.7-0.4-0.4-0.1,0.1
			c1.5,2.3,3.6,3,6,3.9c1.1,0.4,1.6,0.6,2.9,0.7c2.2,0.1,4.8-1.3,5.8-3.3c0.8-1.7,1.1-3.3,0.7-5.1c-0.4-1.4-0.9-1.9-1.7-3
			c-0.5-0.7-1.4-1.2-2-1.8c-1.3-1.1-2.7-1.9-4.5-1.9c-1.7,0-3.3,0.7-4.5,1.9s-1.9,2.8-1.9,4.5
			C999.3,1346.9,1000,1348.3,1001.2,1349.7L1001.2,1349.7z"/>
	</g>
</g>
<g>
	<g>
		<path d="M1112,1269.4c2-0.1,4.3,0.1,6.2-0.4c3.1-0.9,5.4-3.8,5.4-7s-2.2-6.1-5.4-7c-1.9-0.6-4.3-0.4-6.2-0.4
			c-4.1-0.1-7.4,3.5-7.4,7.4S1108,1269.5,1112,1269.4L1112,1269.4z"/>
	</g>
</g>
<g>
	<g>
		<path d="M1063.7,650.1c1.8,0.3,3.8,0.7,5.7,0.6c-1.5-0.4-2.9-0.8-4.4-1.2c-1.5-1.2-2-1.6-1.4-1.1c2.4,2.1,6,3.7,9.3,2.4
			c5.7-2.1,8.9-7.3,7.5-13.4c-0.5-2-1.7-4.2-3.1-5.7c-3.2-3.2-7.7-3.7-11.7-1.7c3.4,0.4,6.8,0.9,10.2,1.3c-3.2-2.7-6.5-4.3-10.8-3.5
			c-2,0.4-3.9,2.3-4.3,4.3c-0.8,3.5,0.3,6.3,1.9,9.4c0.4-3.4,0.9-6.8,1.3-10.2c-1.8,2-2.7,4.1-2.7,6.8c0,1.8,0.5,3.5,1.3,5.1
			c0.7,1.3-0.9-2.5-0.5-1.2c0,0.1,0,0.2,0.1,0.2c-0.4-1.4-0.4-2.8,0-4.2c0.3-0.6,0.5-1.3,0.8-1.9c3.6-3.4,4-3.9,1-1.4
			c-2,1.9-3,4.4-3,7.2c0.4-1.5,0.8-3,1.2-4.5c0,0.1-0.1,0.2-0.1,0.2c1-1,2.1-2.1,3.1-3.1c2.5-1.2,1.1-0.5,0.4-0.2
			c-0.5,0.2-1.1,0.3-1.7,0.4C1056.1,636.3,1055.9,648.7,1063.7,650.1L1063.7,650.1z"/>
	</g>
</g>
<g>
	<g>
		<path d="M922.5,533.6c-2,0-4-0.1-5.9,0.7c-1.1,0.3-2.1,0.9-2.9,1.7c-1.2,1.2-1.9,2.9-1.9,4.7c0,1.2,0.3,2.3,0.9,3.4
			c1,1.6,2.3,2.4,4,3.1c1.9,0.8,3.9,0.7,5.9,0.7c3.9,0.1,7.1-3.3,7.1-7.1C929.6,536.9,926.4,533.5,922.5,533.6L922.5,533.6z"/>
	</g>
</g>
<g>
	<g>
		<path d="M1130.5,481.6c1.7-0.1,3.1-0.3,4.7-0.9c5.9-2.1,3.4-11.7-2.6-9.5c-1.8,0.6-3,1.2-4.3,2.5c-1.2,1.2-1.2,3.3,0,4.5
			c1.4,1.3,2.6,1.9,4.3,2.5c6,2.2,8.6-7.4,2.6-9.5c-1.6-0.6-3-0.7-4.7-0.9C1123.3,469.8,1123.3,482.1,1130.5,481.6L1130.5,481.6z"/>
	</g>
</g>
<g>
	<g>
		<path d="M1560.5,1116.4c9,0,9-14,0-14S1551.4,1116.4,1560.5,1116.4L1560.5,1116.4z"/>
	</g>
</g>
<g>
	<g>
		<path d="M1671.4,1048.5c0.2,0,0.5,0.1,0.7,0.1c-0.9-0.4-1.9-0.8-2.8-1.2c0.2,0.3,0.4,0.5,0.6,0.8c1,1.3,3.1,2,4.7,2
			c1.8,0,3.5-0.7,4.7-2s2-3,2-4.7c0-2.1-1.2-4.8-3.3-5.8c-1-0.5-1.9-0.8-3-1.1c-0.5-0.1-0.9-0.2-1.4-0.3c-1.2-0.3-2.1-0.2-3.3,0
			c-1.2,0.2-2.6,1.5-2.7,2.7c-0.1,0.6-0.2,1.2-0.2,1.8c0,0.8,0.2,1.5,0.4,2.3c0.1,0.6,0.2,1.1,0.3,1.7c-0.1-0.6-0.2-1.1-0.2-1.7
			c0.1,0.9,0.2,1.8,0.4,2.7c1.3-1.7,2.6-3.4,3.8-5c-0.2,0-0.5,0.1-0.7,0.1c-2.1,0.2-3.9,1.6-3.9,3.9S1669.3,1048.3,1671.4,1048.5
			L1671.4,1048.5z"/>
	</g>
</g>
<g>
	<g>
		<path d="M1627.9,610.1c-2-1.3-4-3-6.4-3.4c-2.8-0.5-4.9,1.6-4.4,4.4c0.4,2.4,2.1,4.4,3.4,6.4c1.9,2.9,5.9,3.6,8.4,1.1
			C1631.5,616,1630.8,611.9,1627.9,610.1L1627.9,610.1z"/>
	</g>
</g>
<g>
	<g>
		<path d="M728.3,882.2c0-0.2,0-0.3-0.1-0.5c2.3,3,7.3,1.1,8.2-2.2c1.2-4.4-3.4-7.3-7.2-5.5c-0.9,0.4-1.7,0.9-2.6,1.4
			c-2.1,1.2-2.1,4.5,0,5.7c0.9,0.5,1.7,0.9,2.6,1.4c3.3,1.6,7.3-0.3,7.3-4.2s-5.6-7-8.3-3.5c0-0.2,0-0.3,0.1-0.5
			C723.2,874.7,723.2,881.7,728.3,882.2L728.3,882.2z"/>
	</g>
</g>
<g>
	<g>
		<path d="M515.6,847.8c8.5,0,8.5-13.2,0-13.2S507.2,847.8,515.6,847.8L515.6,847.8z"/>
	</g>
</g>
<g>
	<g>
		<path d="M552.6,722.4c1.6,0-1.1-0.4,0.2,0c-0.8-0.2-1.5-0.7-1.9-1.4c-0.1-0.2-0.5-2.2-0.4-1.1c0,1.3,0.2,2.4,0.9,3.5
			c-0.2-0.9-0.5-1.8-0.7-2.6c0,0.3,0,0.6,0,0.9c0-0.9-0.2,0.9-0.2,0.8c-0.3,1.1-0.4,2-0.4,3.1c0,1.4,1.3,2.8,2.7,2.7
			c2.4-0.2,3.8-1.1,5.6-2.5c0.3-0.2,0.5-0.5,0.7-0.7c0.1-0.1,0.2-0.2,0.3-0.3c-0.9,0.6-0.7,0.4,0.6-0.5c1.2-1.2,1.8-3,1.9-4.7
			c0.2-2.5-0.8-4.5-2.3-6.4c-1.6-2-4.4-2.5-6.8-2.8c-3.3-0.3-6,3-6,6C546.6,719.6,549.3,722.5,552.6,722.4L552.6,722.4z"/>
	</g>
</g>
<g>
	<g>
		<path d="M521.2,975.3c-0.1-1.2-0.3-2.5-0.5-3.7c-0.4-2.3-3.1-4.7-5.4-4.4c1.1,0.4,2.1,0.9,3.2,1.3c-2.4-2.3-6.3-2-8.9-0.2
			c-1.7,1.3-1.7,3.4,0,4.7c0.6,0.4,1.2,0.7,1.8,1c0.2,0.1,0.3,0.1,0.5,0.2c0.9,0.3-0.7-0.3-0.2-0.1c0.1,0.1,0.2,0.1,0.3,0.2
			c0.7,0.4-0.8-0.7-0.4-0.3s-0.7-1.1-0.4-0.5c-0.7-1.2-0.4-1.1-0.3-0.6c0.7-1.7,1.4-3.4,2.1-5.1c-2.8,1.5-2.7,4.8-3,7.5
			c-0.3,3,2.8,5.6,5.6,5.6C518.4,980.8,521.5,978.3,521.2,975.3L521.2,975.3z"/>
	</g>
</g>
<g>
	<g>
		<path d="M411.2,966.2c0.8,0.4,1.7,0.8,2.5,1.3c5.3,2.7,9.9-5.2,4.7-8c-1.7-0.9-2.9-1.4-4.9-1.1c-1.1,0.2-2.3,1.4-2.5,2.5
			c-0.3,2,0.2,3.2,1.1,4.9c2.7-1.6,5.3-3.1,8-4.7c-0.4-0.8-0.9-1.7-1.3-2.5C414.5,950.5,403,962,411.2,966.2L411.2,966.2z"/>
	</g>
</g>
<g>
	<g>
		<path d="M400.1,688.9c6.3,0,6.3-9.8,0-9.8C393.8,679.2,393.8,688.9,400.1,688.9L400.1,688.9z"/>
	</g>
</g>
<g>
	<g>
		<path d="M549.2,577.3c0.8-0.8,1.5-1.7,2.3-2.5c0.2-0.3,0.5-0.5,0.7-0.8c0.1-0.1,0.2-0.2,0.3-0.3c0.4-0.4-1.1,0.8-0.6,0.5
			c-1.7,1-3.5,0.6-5-0.6c0.4,0.3-0.8-1.1-0.5-0.6s-0.5-1.2-0.3-0.6c0,0.1,0.1,0.3,0.1,0.4c0.4,1.3,0.7,2.4,1.7,3.3
			c1.4,1.2,3.3,1.2,4.7,0c1.5-1.3,1.7-3,1.9-4.9c0.2-1.8-0.8-4-2.5-4.8c-2-1-3.9-0.6-5.8,0.3c-0.7,0.4-1.5,1.1-2.1,1.7
			c-0.7,0.6-1.4,1.2-2,1.8c-2,1.8-1.9,5.2,0,7.1C544,579.2,547.4,579.3,549.2,577.3L549.2,577.3z"/>
	</g>
</g>
<g>
	<g>
		<path d="M1108.3,1690.6c-0.8,0.5-1.6,1-2.5,1.6c-3.2,2-3.2,6.5,0,8.6c0.8,0.5,1.6,1,2.5,1.6c4.4,2.8,10.2-0.9,10.2-5.8
			S1112.7,1687.8,1108.3,1690.6L1108.3,1690.6z"/>
	</g>
</g>
<g>
	<g>
		<path d="M1642.7,1415.9c1,1,2.1,2,3.1,2.9c1.4,1.2,1.8,1.4,1.1,0.7c0.1,0.1,0.1,0.1,0.2,0.2c3-3,6-6,9.1-9.1
			c-2.5-2.1-4.9-4.7-8.4-4.7c-2.9,0-5.4,2.4-5.4,5.4c0,3.5,2.6,5.9,4.7,8.4c5.3,6.3,14.4-2.8,9.1-9.1c-0.3-0.3-0.1-0.4,0.1,0.1
			c-1-1.7-2.6-3.1-3.9-4.5C1646.3,1399.8,1636.3,1409.9,1642.7,1415.9L1642.7,1415.9z"/>
	</g>
</g>
<g>
	<g>
		<path d="M1256.9,1758.5c0.1,1.2,0.1,2.5,0.4,3.6c0.6,2.2,2.2,3.7,4.3,4.4c-0.9-0.7-1.8-1.4-2.8-2.1c0.3,0.6,0.6,1.2,1,1.6
			c-0.4-1-0.8-2-1.2-2.9l0,0c0,2.3,1.9,4.1,4.1,4.1s4.1-1.9,4.1-4.1l0,0c-0.4,1-0.8,2-1.2,2.9c0.5-0.4,0.8-1.1,1-1.6
			c-0.9,0.7-1.8,1.4-2.8,2.1c2.1-0.7,3.7-2.3,4.3-4.4c0.3-1.1,0.3-2.5,0.4-3.6c0.3-3.2-2.9-5.9-5.9-5.9S1256.7,1755.3,1256.9,1758.5
			L1256.9,1758.5z"/>
	</g>
</g>
<g>
	<g>
		<path d="M1391.5,1840.1c0.4,0,0.8,0,1.2,0c0.2,0,0.4,0,0.6,0c1.4-0.1,2-0.3,3.3-0.9c1.9-0.9,3.6-3.5,3.4-5.5
			c-0.5,1.2-1,2.5-1.6,3.7c2.5-2.1,2.1-6.3-0.2-8.3c-0.8-0.7-1.6-1.2-2.5-1.8c-0.6-0.4-1.2-0.8-1.9-1c-0.8-0.2-1.5-0.1-2.3-0.1
			c-1.7,0.1-2.9,1.3-3,3c0,0.8-0.1,1.5,0.1,2.3s0.8,1.6,1.2,2.3c0.2,0.3,0.3,0.7,0.5,1c-0.7-1.6-0.4-1.1-0.3-0.7
			c0.2,0.6-0.1-1.7-0.1-0.9c0.1-0.5,0.1-0.9,0.2-1.4c0.2-1.3,2-3.1,3.3-3.3c2,0.8,4,1.6,6,2.4c-0.7-1.6-2.6-2.6-4.2-3.1
			c-1-0.4-2.4-0.2-3.6-0.3c-3.4-0.1-6.2,2.9-6.2,6.2C1385.3,1837.2,1388.1,1840.2,1391.5,1840.1L1391.5,1840.1z"/>
	</g>
</g>
<g>
	<g>
		<path d="M1477.9,1761.3c-0.4,0-1.2-0.2,0.4,0.1c-0.4-0.1-0.8-0.4,0.6,0.3c1.5,0.8,2.1,2.7,1.7,4.3c-0.4,0.9-0.5,1.2-0.3,0.8
			c0.2-0.4-0.8,1-0.4,0.6c0.1-0.1,0.2-0.2,0.3-0.3c0.7-0.7-0.7,0.5-0.3,0.2c0.3-0.3,0.7-0.5,1.1-0.7c0.7-0.4,1.4-0.9,2.2-1.3
			c0.8-0.4,1.4-1,2-1.6c1.3-1.2,1.5-3.2,0.6-4.7c-0.9-1.6-2.7-2.1-4.4-1.8c-2.1,0.4-4.1,1.7-5.8,3c-1.7,1.3-2.9,2.6-3.1,4.9
			c-0.3,3,2.9,4.6,5.5,4.6c2.3,0,4.1-1.9,4.1-4.1C1482,1763.2,1480.1,1761.4,1477.9,1761.3L1477.9,1761.3z"/>
	</g>
</g>
<g>
	<g>
		<path d="M1471.3,1315.1c1.9,1.8,3.8,3.7,6.2,4.6c0.6,0.3,2.3,0.3,3.1,0.1c-1.3-0.3-2.5-0.7-3.8-1l0,0c1.5,1.5,4,1.5,5.5,0
			s1.5-4,0-5.5l0,0c0.3,1.3,0.7,2.5,1,3.8c0.2-0.7,0.1-1.2,0-1.8c-0.1-1-0.3-1.9-0.9-2.7c-0.2-0.3-0.5-0.7-0.7-1
			c-0.9-1.4-2.1-2.5-3.2-3.7c-1.9-2-5.3-1.9-7.2,0C1469.4,1309.7,1469.3,1313.2,1471.3,1315.1L1471.3,1315.1z"/>
	</g>
</g>
<g>
	<g>
		<path d="M1030.6,1449.6c0.9,0.9,1.9,1.8,2.7,2.7c0.1,0.1,0.2,0.3,0.3,0.4c-0.8-1-0.4-0.6-0.2-0.3c0.3,0.5-0.4-1.1-0.3-0.6
			c0.2,0.7,0.6,1.3,1.1,1.8c-0.2-1.4-0.4-2.9-0.6-4.3c0.4-0.7,0.4-0.5,1-1c-0.1,0.1-0.2,0.1-0.3,0.2c-0.1,0.1-0.2,0.1-0.3,0.2
			c-0.4,0.2,0.8-0.3,0,0s-1.6,0.7-2.1,1.5c-0.4,0.7-0.6,1.5-0.2,2.2c0.7,1.2,1.7,1.6,2.9,2c0.5,0.2,1.1,0.2,1.6,0.3
			c0.1,0,0.2,0,0.3,0c0.3,0,0.7-0.1,1-0.1c0.3-0.1,0.1,0-0.7,0.1c1.2,0,2.8-0.7,3.3-1.9c1-2.3,0.3-3.9-1.1-5.7
			c-0.9-1.1-1.9-2.1-2.8-3.1c-1.5-1.6-4.1-1.5-5.6,0C1029.1,1445.5,1029.1,1448.1,1030.6,1449.6L1030.6,1449.6z"/>
	</g>
</g>
<g>
	<g>
		<path d="M713.2,1557.8c0,0.7,0,0.7,0.1-0.2c-0.2,1.1,0.4-0.7,0.6-0.9c0.8-0.9,0.5-0.4,0-0.1c1.3-0.7,0.2-0.2-0.2-0.1
			c-0.6,0.1-0.6,0.1,0.2,0c-0.5,0.1-1,0.1-1.4,0.1c-1.7,0.1-3.2,0.1-4.7,1.1c-3.5,2.1-3.5,7.2,0,9.3c2.8,1.7,7.7,1.3,10.7,0.1
			c4.2-1.6,6.4-4.9,6.7-9.4c0.2-3.2-2.8-5.9-5.9-5.9C715.8,1551.9,713.3,1554.6,713.2,1557.8L713.2,1557.8z"/>
	</g>
</g>
<g>
	<g>
		<path d="M904,1740c1.2,0,2.3-0.2,3.5-0.3c1.1-0.3,2.1-0.9,2.9-1.7c1.2-1.2,1.9-2.9,1.9-4.6c0-2.7-2-5.8-4.8-6.3
			c-0.1,0-0.2,0-0.3,0c0.5,0.2,0.9,0.4,1.4,0.6c-0.7-0.5-1.5-0.7-2.3-1c0.4,0.2,0.9,0.4,1.3,0.6c-0.3-0.1-0.5-0.2-0.7-0.4
			c0.2,0.2,0.5,0.4,0.7,0.6c-0.4-0.3-0.7-0.6-1.1-0.9c-0.2-0.1-0.3-0.2-0.5-0.3c-2-1.4-4.5-0.2-5.7,1.5c-1.6,2.2-1.4,5.9,0,8.1
			c0.7-2.7,1.4-5.4,2.1-8.1c-0.1,0-0.1,0.1-0.2,0.1c1.1-0.3,2.2-0.6,3.3-0.9c-0.6,0-1.2,0-1.8,0c-3.6-0.1-6.6,3.1-6.6,6.6
			C897.4,1737,900.4,1740.2,904,1740L904,1740z"/>
	</g>
</g>
<g>
	<g>
		<path d="M709.8,1494.7c1.5,0,2.9-0.1,4.4-0.1c3.4-0.1,6.2-2.7,6.2-6.2s-2.8-6.1-6.2-6.2c-1.5,0-2.9-0.1-4.4-0.1
			c-3.4-0.1-6.3,2.9-6.3,6.3S706.4,1494.8,709.8,1494.7L709.8,1494.7z"/>
	</g>
</g>
<g>
	<g>
		<path d="M908.6,1442.5c0.3,0,0.3-0.5,0-0.5S908.3,1442.5,908.6,1442.5L908.6,1442.5z"/>
	</g>
</g>
<g>
	<g>
		<path d="M548,1405.4c0.2,0,0.2-0.4,0-0.4S547.8,1405.4,548,1405.4L548,1405.4z"/>
	</g>
</g>
<g>
	<g>
		<path d="M663.6,1724.5c0.3,0,0.3-0.5,0-0.5S663.3,1724.5,663.6,1724.5L663.6,1724.5z"/>
	</g>
</g>
<g>
	<g>
		<path d="M880.9,1548.8c0.3,0,0.3-0.5,0-0.5C880.5,1548.3,880.5,1548.8,880.9,1548.8L880.9,1548.8z"/>
	</g>
</g>
<g>
	<g>
		<path d="M492.5,1378.4c1.4,0.1,2.7,0.2,4.1,0.3c13.5,0.3,13.5-20.6,0-20.9c-1.4,0-2.7-0.1-4.1-0.1c-13.6-0.3-13.6,21.4,0,21.1
			c1.4,0,2.7-0.1,4.1-0.1c13.5-0.3,13.5-21.2,0-20.9c-1.4,0-2.7,0.2-4.1,0.3C479.4,1359.1,479.4,1377.3,492.5,1378.4L492.5,1378.4z"
			/>
	</g>
</g>
<g>
	<g>
		<path d="M824.1,1440.9c-0.7,0.8-1.5,1.6-2.3,2.3c-2,1.7-2,5.6,0,7.3c0.9,0.7,1.6,1.5,2.3,2.3c2,2.2,5.4,2.9,8.2,2.2
			c3.6-1,6.2-4.4,6.2-8.1c0-3-1.6-5.8-4.2-7.3C831.1,1437.7,826.5,1438.1,824.1,1440.9L824.1,1440.9z"/>
	</g>
</g>
<g>
	<g>
		<path d="M843.2,1631.8c-0.1-0.6-0.1-1.2-0.2-1.8c-0.1-1.1-0.2-2.3-0.5-3.4c-0.2-1.4-1.6-3.3-2.6-4.2c-3.1-2.9-7.5-2.9-10.6,0
			c-0.7,0.6-1.2,1.5-1.7,2.3c-1,1.6-1,3.4-1.3,5.2c-0.1,0.6-0.2,1.3-0.2,1.9c-0.3,2.1,1.1,4.6,2.5,6c1.6,1.6,3.8,2.5,6,2.5
			c2.3,0,4.4-0.9,6-2.5C842.1,1636.4,843.4,1633.9,843.2,1631.8L843.2,1631.8z"/>
	</g>
</g>
<g>
	<g>
		<path d="M1327.2,471.5c9.9,5,20,9.5,30.2,14c5.3,2.3,10.6,4.5,16,6.5c6,2.3,12.3,3.7,18.4,5.9c0.5-3.9,1-7.7,1.6-11.6
			c-24.1,0-48.6,4.5-71.1,13.3c1.7,4.1,3.4,8.2,5.2,12.3c18.5-13.8,37-27.7,55.5-41.5c-3.3-2.6-6.7-5.1-10-7.7
			c-4.9,23.5-13.8,45.8-18.7,69.3c4.5,0,9,0,13.5,0c-3.2-12.9-8.4-25.3-13.3-37.6c-2.3-5.7-4.5-11.4-7.2-16.9
			c-1.7-3.5-3.8-7.4-8-8.3c1,0.7,1.9,1.5,2.9,2.2v-0.1c-2.5-5.7-11-0.8-8.4,4.9v0.1c0-1.6,0-3.3,0-4.9c-2,3.5-1.2,7.3,0.2,10.9
			c2.1,5.4,4.4,10.6,6.6,16c5.1,12.2,10.3,24.6,13.7,37.5c1.7,6.4,12.1,6.9,13.5,0c4.7-23.5,13.5-45.9,18.3-69.4
			c1-5.2-4.8-11.6-10-7.7c-18.5,13.9-37,27.8-55.4,41.7c-2.4,1.8-4,4.4-3.1,7.6s4.8,6,8.3,4.7c21.8-8.6,44-14.1,67.6-14.4
			c7.7-0.1,7.6-11.4,0-11.8c-11.3-0.7-23.2-6.7-33.5-10.9c-9.9-4-20.4-8.6-31.2-9C1325.9,466.3,1324.7,470.3,1327.2,471.5
			L1327.2,471.5z"/>
	</g>
</g>
<g>
	<g>
		<path d="M444.2,380.1c10.6,0.7,21.2,1,31.8,1.1c5.9,0.1,11.8,0,17.6-0.2c6.4-0.2,12.7-1.4,19.1-1.7c-0.5-3.9-1-7.7-1.6-11.6
			c-22.8,9.6-43.9,23.4-61.6,40.8c3.5,2.7,7,5.4,10.5,8.1c11.6-20,23.3-40,34.9-59.9c-4.1-0.5-8.3-1.1-12.4-1.6
			c4.7,23.5,5.2,47.6,9.8,71.1c4.3-1.8,8.5-3.6,12.8-5.4c-8.1-10.8-17.7-20.4-27.2-30c-4.3-4.4-8.7-8.8-13.3-12.9
			c-3.3-2.9-6.9-5.4-11.5-4.6c1.6,0.4,3.2,0.8,4.7,1.3l-0.1-0.1c-4.6-4.3-11.5,2.6-6.9,6.9l0.1,0.1c-0.5-1.1-1-2.3-1.4-3.5
			c-0.4,4,2.5,7.3,5,9.9c4,4.2,8.2,8.1,12.4,12.1c9,8.8,18.6,18,26.1,27.7c4.7,6.2,14.5,2.8,12.8-5.4c-4.8-23.5-5.4-47.5-10.2-71
			c-1.2-5.9-9.6-6.5-12.4-1.6c-11.6,20-23.2,40-34.8,60c-3.9,6.6,5.1,13.5,10.5,8.1c16.7-16.5,35.1-30,56.7-39.5
			c6.1-2.7,1.7-13-4.6-10.8c-10.8,3.8-23.8,3.1-35.2,3.2c-10.7,0.1-22.4,0-32.6,3.8C440.6,375.8,441,379.9,444.2,380.1L444.2,380.1z
			"/>
	</g>
</g>
<g>
	<g>
		<path d="M919.4,1484.6c7.1,1.9,14.4,3.5,21.7,5c8.7,1.8,17.3,2.5,26.1,3.7c0-2.7,0-5.4,0-8.1c-17,3.6-32.7,10.6-47.4,19.8
			c1.9,2.5,3.8,5,5.8,7.5c10.8-12.3,21.6-24.7,32.4-37c-2.7-1.1-5.5-2.3-8.2-3.4c0,17-2.8,33.9-2.8,50.9c3.1-0.8,6.2-1.7,9.2-2.5
			c-4.2-8.5-9.6-16.4-14.9-24.3c-2.4-3.5-4.7-7-7.3-10.4c-0.9-1.2-1.8-2.7-3.2-3.5c-0.6-0.3-1.3-0.5-1.9-0.7
			c-1.5-0.5-0.2-0.5,1.1,1.3c-2.6-3.6-8.6-0.1-6,3.5c-1.1-1.5-0.5-1.6-0.5,0.2c0,1.8,1.2,3.3,2.1,4.7c2.2,3.4,4.6,6.7,6.9,10
			c5.4,7.8,10.9,15.7,15.1,24.1c2.3,4.5,9.3,2.3,9.2-2.5c-0.2-17,2.6-33.9,2.5-50.9c0-4-5.4-6.7-8.2-3.4
			c-10.8,12.4-21.6,24.7-32.3,37.1c-3.4,3.9,1.1,10.7,5.8,7.5c13.6-9.5,28.6-16.2,44.8-19.9c5.4-1.2,3-8.8-2.2-8.1
			c-8.3,1.1-17.7-1.5-25.9-2.9c-7.1-1.3-14.7-2.6-21.9-1.4C917.4,1481.2,917.6,1484.1,919.4,1484.6L919.4,1484.6z"/>
	</g>
</g>
<g>
	<g>
		<path d="M1794.1,856.5c7.1,1.9,14.4,3.5,21.7,5c8.7,1.8,17.3,2.5,26.1,3.7c0-2.7,0-5.4,0-8.1c-17,3.6-32.7,10.6-47.4,19.8
			c1.9,2.5,3.8,5,5.8,7.5c10.8-12.3,21.6-24.7,32.4-37c-2.7-1.1-5.5-2.3-8.2-3.4c0,17-2.8,33.9-2.8,50.9c3.1-0.8,6.2-1.7,9.2-2.5
			c-4.2-8.5-9.6-16.4-14.9-24.3c-2.4-3.5-4.7-7-7.3-10.4c-0.9-1.2-1.8-2.7-3.2-3.5c-0.6-0.3-1.3-0.5-1.9-0.7
			c-1.5-0.5-0.2-0.5,1.1,1.3c-2.6-3.6-8.6-0.1-6,3.5c-1.1-1.5-0.5-1.6-0.5,0.2s1.2,3.3,2.1,4.7c2.2,3.4,4.6,6.7,6.9,10
			c5.4,7.8,10.9,15.7,15.1,24.1c2.3,4.5,9.3,2.3,9.2-2.5c-0.2-17,2.6-33.9,2.5-50.9c0-4-5.4-6.7-8.2-3.4
			c-10.8,12.4-21.6,24.7-32.3,37.1c-3.4,3.9,1.1,10.7,5.8,7.5c13.6-9.5,28.6-16.2,44.8-19.9c5.4-1.2,3-8.8-2.2-8.1
			c-8.3,1.1-17.7-1.4-25.9-2.9c-7.1-1.3-14.7-2.6-21.9-1.4C1792.1,853,1792.3,856,1794.1,856.5L1794.1,856.5z"/>
	</g>
</g>
<g>
	<g>
		<path d="M342.7,858.4c13.4,3.6,26.9,5.5,40.6,7.4c0-2.3,0-4.6,0-6.9c-14.5,3.1-27.8,9.1-40.3,16.8c1.6,2.1,3.3,4.2,4.9,6.4
			c9.2-10.5,18.4-21,27.6-31.5c-2.3-1-4.7-1.9-7-2.9c0,14.5-2.3,28.8-2.4,43.3c2.6-0.7,5.2-1.4,7.9-2.1c-3.5-7.1-8-13.7-12.4-20.2
			c-2.1-3.2-4.2-6.3-6.6-9.3c-0.8-1-1.5-2.2-2.6-2.8c-0.5-0.3-1.2-0.5-1.7-0.7c-1.2-0.4-0.1-0.3,0.9,1.1c-2.2-3-7.3-0.1-5.1,3
			c-0.9-1.2-0.4-1.2-0.4,0.2c0,1.5,0.9,2.6,1.7,3.8c2,3.1,4.2,6.1,6.3,9.1c4.5,6.5,9,13.1,12.6,20.1c1.9,3.8,7.9,1.9,7.9-2.1
			c-0.1-14.5,2.2-28.8,2.1-43.3c0-3.4-4.6-5.7-7-2.9c-9.2,10.5-18.4,21-27.5,31.6c-2.9,3.3,0.9,9.2,4.9,6.4
			c11.5-8.1,24.4-13.8,38.1-16.9c3.9-0.9,3.1-7.6-1-7c-13.9,1.8-27.6-5.8-41.6-3.6C341.1,855.4,341.3,858,342.7,858.4L342.7,858.4z"
			/>
	</g>
</g>
<g>
	<g>
		<path d="M1410.6,942.9c13.4,3.6,26.9,5.5,40.6,7.4c0-2.3,0-4.6,0-6.9c-14.5,3.1-27.8,9.1-40.3,16.8c1.6,2.1,3.3,4.2,4.9,6.4
			c9.2-10.5,18.4-21,27.6-31.5c-2.3-1-4.7-1.9-7-2.9c0,14.5-2.3,28.8-2.4,43.3c2.6-0.7,5.2-1.4,7.9-2.1c-3.5-7.1-8-13.7-12.4-20.2
			c-2.1-3.2-4.2-6.3-6.6-9.3c-0.8-1-1.5-2.2-2.6-2.8c-0.5-0.3-1.2-0.5-1.7-0.7c-1.2-0.4-0.1-0.3,0.9,1.1c-2.2-3-7.3-0.1-5.1,3
			c-0.9-1.2-0.4-1.2-0.4,0.2c0,1.5,0.9,2.6,1.7,3.8c2,3.1,4.2,6.1,6.3,9.1c4.5,6.5,9,13.1,12.6,20.1c1.9,3.8,7.9,1.9,7.9-2.1
			c-0.1-14.5,2.2-28.8,2.1-43.3c0-3.4-4.6-5.7-7-2.9c-9.2,10.5-18.4,21.1-27.5,31.6c-2.9,3.3,0.9,9.2,4.9,6.4
			c11.5-8.1,24.4-13.8,38.1-16.9c3.9-0.9,3.1-7.6-1-7c-13.9,1.8-27.6-5.8-41.6-3.6C1409,940,1409.1,942.5,1410.6,942.9L1410.6,942.9
			z"/>
	</g>
</g>
<g>
	<g>
		<path d="M1750.2,1684.5c11.9,3.3,23.9,4.9,36.1,6.6c0-2,0-4.1,0-6.1c-12.9,2.8-24.6,8.1-35.8,14.9c1.5,1.9,2.9,3.8,4.4,5.7
			c8.2-9.3,16.3-18.6,24.5-28c-2.1-0.9-4.1-1.7-6.2-2.6c0,12.8-2.1,25.6-2.1,38.4c2.3-0.6,4.7-1.3,7-1.9c-3.4-6.8-7.7-13.2-12-19.4
			c-2.2-3.3-5.3-10.1-10-10.2c0.8,0.4,1.5,0.9,2.3,1.3l0,0c-2-2.7-6.5-0.1-4.5,2.6c-1-1.3-0.3-2.6-0.4-0.7c0,1.2,0.2,2.1,0.8,3.2
			c1.4,2.7,3.5,5.2,5.3,7.7c4.3,6.2,8.7,12.5,12.2,19.3c1.7,3.4,7,1.7,7-1.9c-0.1-12.8,1.9-25.6,1.9-38.4c0-3-4.1-5-6.2-2.6
			c-8.1,9.4-16.3,18.7-24.4,28c-2.5,2.9,0.8,8.1,4.4,5.7c10.2-7.2,21.7-12.2,33.9-15c3.4-0.8,2.7-6.7-0.8-6.2
			c-12.4,1.6-24.5-5.1-36.9-3.2C1748.7,1681.9,1748.8,1684.1,1750.2,1684.5L1750.2,1684.5z"/>
	</g>
</g>
<g>
	<g>
		<path d="M565.3,1788.6c11.9,3.3,23.9,4.9,36.1,6.6c0-2,0-4.1,0-6.1c-12.9,2.8-24.6,8.1-35.8,14.9c1.5,1.9,2.9,3.8,4.4,5.7
			c8.2-9.3,16.3-18.7,24.5-28c-2.1-0.9-4.1-1.7-6.2-2.6c0,12.8-2.1,25.6-2.1,38.4c2.3-0.6,4.7-1.3,7-1.9c-3.4-6.8-7.7-13.2-12-19.4
			c-2.2-3.3-5.3-10.1-10-10.2c0.8,0.4,1.5,0.9,2.3,1.3l0,0c-2-2.7-6.5-0.1-4.5,2.6c-1-1.3-0.3-2.6-0.4-0.7c0,1.2,0.2,2.1,0.8,3.2
			c1.4,2.7,3.5,5.2,5.3,7.7c4.3,6.2,8.7,12.5,12.2,19.3c1.7,3.4,7,1.7,7-1.9c-0.1-12.8,1.9-25.6,1.9-38.4c0-3-4.1-5-6.2-2.6
			c-8.1,9.4-16.3,18.7-24.4,28c-2.5,2.9,0.8,8.1,4.4,5.7c10.2-7.2,21.7-12.2,33.9-15c3.4-0.8,2.7-6.7-0.8-6.2
			c-12.4,1.6-24.5-5.1-36.9-3.2C563.8,1786,564,1788.2,565.3,1788.6L565.3,1788.6z"/>
	</g>
</g>
<g>
	<g>
		<path d="M1247.5,818.3c3.9,0,3.9-6,0-6S1243.7,818.3,1247.5,818.3L1247.5,818.3z"/>
	</g>
</g>
<g>
	<g>
		<path d="M1547.2,840.9c1,0.2,2,0.5,3,0.5c0.8,0,2-0.2,2.7-0.7c0.9-0.7,1.1-0.8,1.7-1.7c0.5-0.8,0.6-1.6,0.7-2.5
			c-0.5,1.1-0.9,2.2-1.4,3.3l0,0c-0.3,0.2-0.6,0.5-1,0.7l0,0c1.1-0.5,1.9-1.8,2.2-2.9c0.4-1.5,0-3.6-1.2-4.7l0,0
			c-1.2-1-3-1.9-4.6-1.2l0,0c0.8,0,1.6,0,2.5,0c-1.1-0.4-2.3-0.4-3.4-0.5c-1.4,0-2.6,1.2-2.6,2.6c0,0.8,0.1,1.5,0.2,2.3
			c0-0.3-0.1-0.7-0.1-1c0,0.3,0.1,0.7,0.1,1c0.5-1.1,0.9-2.2,1.4-3.3c-1,0.9-1.4,2.2-1.4,3.5c0,3,3.1,5.6,6.1,4.6l0,0
			c-0.8,0-1.7,0-2.5,0l0,0c-1.1-1.1-2.2-2.2-3.3-3.3v0.1c-0.1-0.4-0.1-0.8-0.2-1.2v0.1c0.1-0.4,0.1-0.8,0.2-1.2l0,0
			c0.2-0.4,0.3-0.7,0.5-1.1c0,0,0,0,0,0.1c0.2-0.3,0.5-0.6,0.7-0.9c0,0,0,0-0.1,0.1c0.3-0.2,0.6-0.5,0.9-0.7
			c-0.1,0.1-0.2,0.1-0.3,0.2c0.4-0.2,0.7-0.3,1.1-0.5c-0.5,0.2-1.1,0.3-1.7,0.5c-1.8,0.4-3,2.2-3,3.9
			C1544.2,838.8,1545.5,840.5,1547.2,840.9L1547.2,840.9z"/>
	</g>
</g>
<g>
	<g>
		<path d="M1284.7,638.4c7.8,0,7.8-12.1,0-12.1S1277,638.4,1284.7,638.4L1284.7,638.4z"/>
	</g>
</g>
<g>
	<g>
		<path d="M1314,838.1c-0.2,0.5-0.4,1-0.5,1.5c1-1.3,2-2.6,3-3.9c-3.7,2.2-5,6.7-2.9,10.5c0.8,1.5,1.7,2,3,3c0.9,0.7,2.2,1,3.3,1.3
			c-1.6-1.2-3.2-2.4-4.8-3.7c1.3,3,4.7,4.8,7.8,4.8c4.8,0,8.8-4,8.8-8.8c0-3.9-2.7-7.5-6.5-8.5c-3.9-1.1-8.5,0.7-10.2,4.5
			c1.6-1.2,3.2-2.4,4.8-3.7c-0.2,0-0.5,0.1-0.7,0.1c0.7-0.1,1.4-0.2,2.1-0.3c-0.2,0-0.5,0-0.7,0c0.7,0.1,1.4,0.2,2,0.3
			c-0.1,0-0.2,0-0.3-0.1c0.6,0.3,1.2,0.5,1.8,0.8c-0.1,0-0.1-0.1-0.2-0.1c-1.1-0.8-2.8-1-4.1-1c1.9,1.1,3.8,2.2,5.7,3.3V838
			c0.2,0.5,0.4,1,0.7,1.6c-0.2-0.5-0.4-0.9-0.5-1.4c-0.3-1-0.8-1.9-1.6-2.7c-1.1-1.1-2.7-1.8-4.3-1.8c-1.1,0-2.1,0.3-3,0.8
			C1315.3,835.3,1314.5,836.5,1314,838.1L1314,838.1z"/>
	</g>
</g>
<g>
	<g>
		<path d="M1438.2,714.7c-0.1,0.5-0.3,1-0.4,1.6c1.2-1.2,2.5-2.5,3.7-3.7c-1.3,0.4-2.3,0.9-3.3,1.8c-1.2,1.2-2,3-2,4.7
			c0,3.6,3,6.7,6.7,6.7s6.7-3,6.7-6.7c0-1.8-0.7-3.5-2-4.7c-1-1-2-1.4-3.3-1.8c1.2,1.2,2.5,2.5,3.7,3.7c-0.1-0.5-0.3-1-0.4-1.6
			c-0.6-2.1-2.5-3.6-4.7-3.6S1438.8,712.7,1438.2,714.7L1438.2,714.7z"/>
	</g>
</g>
<g>
	<g>
		<path d="M1771.6,766.7c-2.7,0.3-5.7,0.2-7.3,2.8c0.9-0.7,1.9-1.4,2.8-2.1c-0.6,0.3-1.3,0.5-1.9,0.8c-3.7,1.5-3.7,6,0,7.5
			c0.6,0.3,1.3,0.5,1.9,0.8c-0.9-0.7-1.9-1.4-2.8-2.1c1.6,2.7,4.6,2.6,7.3,2.8c2.8,0.3,5.2-2.6,5.2-5.2S1774.4,766.4,1771.6,766.7
			L1771.6,766.7z"/>
	</g>
</g>
<g>
	<g>
		<path d="M1391,1276.6c-0.7,0.3-1.4,0.6-2.1,0.9c0.4-0.2,0.8-0.4,1.3-0.5c-0.3,0.1-0.6,0.2-0.9,0.3c0.5-0.1,1-0.1,1.5-0.2
			c0,0,0,0-0.1,0c1.6,0.9,3.2,1.9,4.9,2.8l0,0c0.2,0.5,0.4,0.9,0.6,1.4l0,0c0.1,0.5,0.1,1,0.2,1.5l0,0c-0.1,0.5-0.1,1-0.2,1.6l0,0
			c-0.2,0.5-0.4,0.9-0.6,1.4l0,0c-0.3,0.4-0.6,0.8-0.9,1.2l0,0c0.3-0.4,0.6-0.8,0.9-1.2c0.5-0.9,0.8-2,0.8-3c0-1.6-0.7-3.1-1.8-4.3
			l0,0c0.3,0.4,0.6,0.8,0.9,1.2c0-0.1-0.1-0.1-0.1-0.2c0.2,0.5,0.4,1,0.6,1.4c-0.2-0.6-0.3-1.3-0.4-1.9c-0.3-1-0.8-1.8-1.5-2.5
			c-1.1-1.1-2.5-1.7-4-1.7c-1,0-2,0.3-2.9,0.8c-1.2,0.7-2.4,2-2.6,3.4c-0.2,1-0.3,2-0.4,3c-0.1,1.4,0.3,2.5,0.9,3.7
			c0.6,1.4,2.2,2.4,3.6,2.8c1.5,0.4,3.3,0.2,4.7-0.6c1.3-0.8,2.5-2.1,2.8-3.7c-0.5,0.8-1,1.6-1.4,2.5c1.1-1.2,1.7-2.5,2.4-4
			c0.4-0.7,0.6-1.4,0.6-2.2c0-1.2-0.5-2.3-1.3-3.1c-0.6-0.6-1.2-0.9-2-1.1C1393.2,1275.8,1392.2,1276,1391,1276.6L1391,1276.6z"/>
	</g>
</g>
<g>
	<g>
		<path d="M1402.8,1427.6c0.4-0.3,0.7-0.7,1.1-1c-3.2,3.1-2.4,8.6,1.4,10.8c4.2,2.4,10.9-0.6,10.4-6c0-0.2-0.1-0.5-0.1-0.7
			c-0.9-8.8-12.7-8.8-13.6,0c0,0.2-0.1,0.5-0.1,0.7c-0.5,4.5,4.7,7.7,8.7,6.6c5-1.4,6.7-7.9,3-11.5c0.4,0.3,0.7,0.7,1.1,1
			C1413.9,1421.7,1403.6,1421.7,1402.8,1427.6L1402.8,1427.6z"/>
	</g>
</g>
<g>
	<g>
		<path d="M1842.9,1501.3c0.8,0.1,1.6,0.1,2.4,0.2c-0.7-0.2-1.3-0.4-2-0.5h0.1c-0.6-0.8-1.2-1.6-1.8-2.4c0.3,2.1,2.5,3.5,4.5,3.5
			c2.5,0,4.6-2.1,4.6-4.6s-2.1-4.6-4.6-4.6c-2,0-4.2,1.5-4.5,3.5c0.6-0.8,1.2-1.6,1.8-2.4h-0.1c0.7-0.2,1.3-0.4,2-0.5
			c-0.8,0.1-1.6,0.1-2.4,0.2c-2.1,0.2-3.8,1.6-3.8,3.8S1840.9,1501.1,1842.9,1501.3L1842.9,1501.3z"/>
	</g>
</g>
<g>
	<g>
		<path d="M1935.9,1087.1c6.6,0,6.6-10.2,0-10.2S1929.3,1087.1,1935.9,1087.1L1935.9,1087.1z"/>
	</g>
</g>
<g>
	<g>
		<path d="M1782.7,482c-0.7,0.3-1.4,0.5-2,0.8c-0.7,0.2-1.2,0.5-1.7,1c-0.7,0.7-1.1,1.7-1.1,2.8c0,0.7,0.2,1.4,0.5,2
			c0.6,1,1.3,1.4,2.3,1.8c0.7,0.3,1.4,0.5,2,0.8c1.1,0.4,2.7,0.1,3.7-0.5c1.4-0.8,2.4-2.4,2.4-4.1c0-1.3-0.5-2.5-1.4-3.4
			C1786.3,482.1,1784.3,481.4,1782.7,482L1782.7,482z"/>
	</g>
</g>
<g>
	<g>
		<path d="M583.9,1209.8c0.3,0,0.7,0.1,1,0.1C584.6,1209.8,584.2,1209.8,583.9,1209.8c0.3,0,0.7,0.1,1.1,0.2
			c-0.3-0.1-0.6-0.3-0.9-0.4c0.1,0,0.2,0.1,0.3,0.2c-0.3-0.2-0.5-0.4-0.8-0.6l0.1,0.1c-0.2-0.3-0.4-0.5-0.6-0.8l0,0
			c-0.1-0.3-0.3-0.6-0.4-1l0,0c0-0.4-0.1-0.7-0.1-1.1v0.1c0-0.4,0.1-0.7,0.1-1.1v0.1c0.1-0.3,0.3-0.6,0.4-1v0.1
			c0.2-0.3,0.4-0.6,0.6-0.8c-0.7,0.8-0.8,1-1.1,2c0.1-0.3,0.3-0.7,0.4-1c0,0.1-0.1,0.2-0.2,0.3c0.2-0.3,0.4-0.6,0.6-0.8
			c-0.2,0.2-0.4,0.4-0.6,0.6c0.3-0.2,0.5-0.4,0.8-0.6c-0.6,0.5-1.3,0.9-2.1,1.2c-0.1,0-0.2,0.1-0.2,0.1c0.2-0.1,0.4-0.2,0.6-0.3
			c-0.3,0.1-0.7,0.3-1,0.4c-0.4,0.2-0.7,0.5-1.1,0.9c-0.1,0.1-0.2,0.2-0.4,0.4c-0.5,0.5,0.3-0.2,0.1-0.1c-1.6,1.1-1.6,3.2,0,4.3
			c0.3,0.2,0.7,0.4,1,0.6c0.7,0.3,1.4,0.6,2.2,0.5c0.5-0.1,1.1-0.1,1.6-0.2c1.3-0.2,2.6-0.6,3.7-1.3c1-0.6,2.2-1.7,2.4-2.9
			c0.3-1.5,0.1-3.3-1.2-4.3c-0.8-0.6-1.4-1.1-2.4-1.3c-1-0.2-2-0.2-3-0.2c-2.1,0.1-3.8,1.6-3.8,3.8
			C580.1,1208.2,581.9,1209.6,583.9,1209.8L583.9,1209.8z"/>
	</g>
</g>
<g>
	<g>
		<path d="M256,1246.3c-0.1,1.1,0.1,2.2,0.4,3.3c0.4,1.5,1.1,2.6,2.1,3.8c1.2,1.5,3,2.1,4.8,2.2c2.4,0.2,4.5-1.4,5.7-3.3
			c-1.2,0.9-2.3,1.8-3.5,2.7c0,0,0,0,0.1,0c-1,0-2.1,0-3.1,0c0.5,0.1,1.1,0.2,1.6,0.2c1.2,0,2-0.3,3.1-0.8c1.9-0.9,3-3.2,3-5.2
			c0-2.1-1.2-4.1-3-5.2c-1.9-1.1-4.2-1.1-6.1,0c-2.2,1.3-3.6,4.3-2.8,6.8c0.3,1,0.8,2.1,1.6,2.7c-0.3-0.4-0.6-0.8-0.9-1.2l0,0
			c0-2,0-3.9,0-5.8c0,0.1-0.1,0.2-0.2,0.3c0.3-0.4,0.6-0.8,0.9-1.2c-0.1,0.1-0.1,0.1-0.2,0.2c0.4-0.3,0.8-0.6,1.2-0.9l-0.1,0.1
			c0.5-0.2,0.9-0.4,1.4-0.6c-0.1,0-0.1,0-0.2,0c0.5-0.1,1-0.1,1.5-0.2c-0.1,0-0.1,0-0.2,0c0.5,0.1,1,0.1,1.5,0.2
			c-0.1,0-0.2,0-0.2-0.1c0.5,0.2,0.9,0.4,1.4,0.6c-0.1-0.1-0.2-0.1-0.3-0.2c0.4,0.3,0.8,0.6,1.1,0.9c-0.2-0.1-0.3-0.3-0.4-0.5
			c0.3,0.4,0.6,0.8,0.9,1.1c-0.2-0.3-0.4-0.7-0.6-1c0.2,0.4,0.4,0.9,0.6,1.3c-0.2-0.4-0.3-0.9-0.4-1.3c0.1,0.5,0.1,1,0.2,1.4
			c0-0.1,0-0.2,0-0.3c-0.1-1.5-0.5-2.8-1.6-3.8c-1-1-2.4-1.6-3.8-1.6s-2.8,0.6-3.8,1.6C256.5,1243.5,256.1,1244.8,256,1246.3
			L256,1246.3z"/>
	</g>
</g>
<g>
	<g>
		<path d="M213.4,920.7c0,0.4,0,0.7,0.1,1.1c0,0.3,0,0.6,0,0.8s0,0.3,0,0.5c0.1,1.1,0.2,1.5,0.7,2.5c0.6,1.4,2.4,2.2,3.9,2.2
			c1.4,0,3.3-0.8,3.9-2.2c0.4-1,0.6-1.3,0.7-2.4c0-0.1,0-0.3,0-0.4c0-0.3,0-0.6,0-1s0-0.7,0.1-1.1c0.1-2.5-2.2-4.6-4.6-4.6
			C215.6,916.1,213.3,918.2,213.4,920.7L213.4,920.7z"/>
	</g>
</g>
<g>
	<g>
		<path d="M296.1,823.4c-1,0.6-2,1.2-2.9,2c-1.3,1.1-1.3,3.5,0,4.6c0.9,0.8,1.9,1.4,2.9,2c3.2,2,7.4-0.6,7.4-4.3
			C303.6,824,299.4,821.4,296.1,823.4L296.1,823.4z"/>
	</g>
</g>
<g>
	<g>
		<path d="M1123.5,212.9c-2.2,0.1-3.9,0.9-5.5,2.5c-0.4,0.4-0.8,0.8-1.1,1.3c-0.5,0.8,0.3-0.2-0.2,0.2c-0.3,0.2-0.2,0.2,0.1,0
			c-0.3,0.2-0.6,0.4-0.9,0.6c-0.6,0.6-1,1.5-1,2.3c0,1.6,1.5,3.2,3.2,3.1c1.2-0.1,2.1-0.3,3.2-0.8c0.8-0.4,1.4-1,2.1-1.6
			c0.3-0.3,0.2-0.2-0.2,0.1c0.1-0.1,0.3-0.2,0.4-0.2c-0.5,0.2-0.6,0.2-0.1,0.1c-0.5,0.1-0.6,0.1-0.1,0.1c2.1,0,3.8-1.7,3.8-3.8
			C1127.3,214.8,1125.6,212.8,1123.5,212.9L1123.5,212.9z"/>
	</g>
</g>
<g>
	<g>
		<path d="M844.4,222.2c0.5,0.1,1.1,0.1,1.6,0.2c-1.8-1.4-3.6-2.8-5.4-4.1c0,0.1,0,0.1,0,0.2c0.4,2,2.5,4,4.4,4.4
			c0.5,0.1,1.1,0.3,1.6,0.4c-1.3-1-2.7-2.1-4-3.1c1.1,2,3,3.4,5.2,3.9c0.3,0.1,0.6,0.1,0.9,0.2c2,0.4,2.3,0.3,4.3,0
			c0.1,0,0.2,0,0.3,0s0.2,0,0.3,0c1.8-0.3,3.7-2,4.6-3.5c1-1.8,1.3-3.9,0.8-5.9c-0.5-1.9-1.8-3.6-3.5-4.6c-0.6-0.3-1.2-0.5-1.8-0.8
			c-1.4-0.4-2.7-0.4-4.1,0c-1.8,0.3-3.5,0.8-4.8,2.4c-1.3,1.5-2.1,3-2.1,5s0.8,3.5,2.1,5s3,2.1,4.8,2.4c0.7,0.1,1.4,0.2,2,0.3
			c1.4,0,2.7-0.4,3.9-1c1.7-1,3-2.7,3.5-4.6c0.5-2,0.3-4.1-0.8-5.9c-0.9-1.5-2.7-3.2-4.6-3.5c-0.9-0.1-2-0.4-2.8-0.4
			c-0.9,0-1.9,0.2-2.8,0.4c-2.3,0.4-4.2,1.9-5.3,3.9c1.3-1,2.7-2.1,4-3.1c-0.5,0.1-1.1,0.3-1.6,0.4c-2,0.5-4.1,2.4-4.4,4.4
			c0,0.1,0,0.1,0,0.2c1.8-1.4,3.6-2.8,5.4-4.1c-0.5,0.1-1.1,0.1-1.6,0.2c-0.5,0.1-1,0.1-1.4,0.2c-0.9,0.3-1.7,0.7-2.4,1.4
			c-1,1-1.6,2.4-1.6,3.8c0,1.4,0.6,2.8,1.6,3.8c0.4,0.3,0.7,0.6,1.1,0.8C842.5,222,843.4,222.2,844.4,222.2L844.4,222.2z"/>
	</g>
</g>
<g>
	<g>
		<path d="M881.6,416.4c9.5,0,9.5-14.8,0-14.8C872.1,401.7,872.1,416.4,881.6,416.4L881.6,416.4z"/>
	</g>
</g>
<g>
	<g>
		<path d="M628.6,350.4c-0.3,0.5-0.7,1.1-1,1.6c-6,9.7,12.9,15,12.8,3.5c0-0.2,0-0.5,0-0.7c-0.1-8.8-13.6-8.8-13.7,0
			c0,0.2,0,0.5,0,0.7c-0.1,11.5,18.7,6.2,12.8-3.5c-0.3-0.5-0.7-1.1-1-1.6C636.2,346.7,630.9,346.7,628.6,350.4L628.6,350.4z"/>
	</g>
</g>
<g>
	<g>
		<path d="M540.5,228c6.4,0,6.4-10,0-10S534.1,228,540.5,228L540.5,228z"/>
	</g>
</g>
<g>
	<g>
		<path d="M368.3,480.4c0-0.3,0-0.6,0-0.9c-0.1-2.4-2-4.5-4.5-4.5c-2.4,0-4.6,2-4.5,4.5c0.1,1.3,0.1,2.6,0.2,3.9
			c0.1,2.4,1.9,4.3,4.3,4.3s4.2-2,4.3-4.3c0.1-1.3,0.1-2.6,0.2-3.9c0.1-2.4-2.1-4.5-4.5-4.5c-2.5,0-4.4,2-4.5,4.5c0,0.3,0,0.6,0,0.9
			c-0.1,2.5,2.1,4.5,4.5,4.5C366.1,484.9,368.4,482.8,368.3,480.4L368.3,480.4z"/>
	</g>
</g>
<g>
	<g>
		<path d="M1285.2,289.9c-0.8,0.6-1.9,1.1-2.5,1.9c-1.4,1.4-1.4,3.7,0,5.1c0.7,0.7,1.7,1.3,2.5,1.9c1.5,1,3.7,0.9,5.2,0
			c1.6-0.9,2.5-2.6,2.5-4.4s-1-3.5-2.5-4.4C1288.9,289,1286.7,288.9,1285.2,289.9L1285.2,289.9z"/>
	</g>
</g>
<g>
	<g>
		<path d="M1147.5,755.9c-0.3,0.2-0.5,0.3-0.8,0.5c1.1-0.1,2.1-0.3,3.2-0.4c-0.2-0.1-0.4-0.1-0.6-0.2c-2.7-0.9-5.7,2-4.7,4.7
			c0.1,0.2,0.1,0.4,0.2,0.6c0.1-1.1,0.3-2.1,0.4-3.2c-0.6,0.8-1,1.7-1.3,2.6c-0.5,2-0.3,4.2,0.8,6c2.1,3.6,7,4.9,10.6,2.8
			c3.6-2.1,4.9-7,2.8-10.6S1151.1,753.6,1147.5,755.9L1147.5,755.9z"/>
	</g>
</g>
<g>
	<g>
		<path d="M1326.5,1133.5c10.5,0,10.5-16.2,0-16.2C1316.1,1117.3,1316.1,1133.5,1326.5,1133.5L1326.5,1133.5z"/>
	</g>
</g>
<g>
	<g>
		<path d="M728,1314.2c0-0.2,0.1-0.3,0.1-0.5c3.5-2,7-4,10.5-6c-1.4-1-2.9-1.2-4.6-1.2c-3.3-0.1-6.2,2.8-6.1,6.1
			c0,1.7,0.3,3.2,1.2,4.7c2.9,4.2,9.2,4.8,12,0c2.7-4.7-0.8-10.3-6-10.5c0.2,0,0.4-0.1,0.5-0.1C731,1303.5,724.9,1309.7,728,1314.2
			L728,1314.2z"/>
	</g>
</g>
<g>
	<g>
		<path d="M808.3,1261.7c0.6,1.1,0.3,0.2,0.6,1.3c0.6-2.2,1.2-4.4,1.8-6.7c-0.1,0.1-0.2,0.2-0.3,0.2c-2.3,2-3.1,5.8-2.3,8.6
			c0.3,1.1,0.2,0.5-0.1-1.6c4.5-2.6,9.1-5.2,13.6-7.8c0,0,0,0-0.1,0c1.1,1.1,2.2,2.2,3.3,3.3c-3-5.4-13.2-10.4-16.9-2.7
			c-3.6,7.5,1.1,15.4,9.2,16.3c7.2,0.8,10.8-8.2,7.8-13.6c-0.5-0.9-1.2-1.7-2-2.5c-2.8-2.8-7.3-3.4-10.7-1.4c0,0-0.1,0-0.1,0.1
			c2.3,0,4.6,0,6.9,0c-0.9-0.5-1.7-1.1-2.5-1.7C811.3,1250.3,805.4,1256.7,808.3,1261.7L808.3,1261.7z"/>
	</g>
</g>
<g>
	<g>
		<path d="M754.5,1018.9c10.7,0,10.7-16.6,0-16.6C743.8,1002.3,743.8,1018.9,754.5,1018.9L754.5,1018.9z"/>
	</g>
</g>
<g>
	<g>
		<path d="M628.9,1019.2c1.2,0.2,2.5,0.4,3.7,0.5c7.5,0.9,7.9-12.2,0-11.9c-1.9,0-3.2,0.6-4.9,1.4c-3.5,1.7-3.5,7.5,0,9.2
			c1.7,0.8,3,1.3,4.9,1.4c7.9,0.2,7.5-12.8,0-11.9c-1.3,0.1-2.5,0.3-3.7,0.5C623.5,1009.1,623.5,1018.4,628.9,1019.2L628.9,1019.2z"
			/>
	</g>
</g>
<g>
	<g>
		<path d="M652.1,1130.1c6.1,0,6.1-9.5,0-9.5S646,1130.1,652.1,1130.1L652.1,1130.1z"/>
	</g>
</g>
<g>
	<g>
		<path d="M639.1,877.3c0,0.7,0.1,1.4,0,2c0-0.3,0.1-0.6,0.1-1c0,0.1,0,0.3-0.1,0.4c0.3-1.1,0.4-0.9,0.2-0.6
			c0.6-0.9,0.7-0.8,0.4-0.5c0.7-0.5,0.8-0.6,0.6-0.4c-0.4,0.2,1-0.4,0.6-0.2c-0.2,0.1-0.4,0.1-0.5,0.1c0.3,0,0.6-0.1,0.9-0.1
			c-0.1,0-0.2,0-0.3,0c-0.8,0.1-1.3,0.2-2,0.5s-1,1-1.5,1.5c-0.5,0.7-0.5,2.2,0,2.9c0.5,0.6,0.8,1.1,1.5,1.5s1.6,0.5,2.4,0.5
			c1.3,0,2.4-0.4,3.4-1.3c1.5-1.3,1.5-3.5,1.6-5.3c0.1-2-1.8-3.7-3.7-3.7C640.9,873.6,639,875.3,639.1,877.3L639.1,877.3z"/>
	</g>
</g>
<g>
	<g>
		<path d="M450.8,1208.9c0.5,0.4,0.9,0.8,1.4,1.2c0.4,0.3,0.7,0.6,1.1,1c0.1,0.1,0.3,0.3,0.4,0.4c0.9,0.8,1.7,1.2,2.9,1.3
			c2,0.1,4-1.8,3.9-3.9c-0.1-1.2-0.5-2-1.3-2.9c-0.1-0.1-0.3-0.3-0.4-0.4c-0.3-0.3-0.6-0.7-1-1.1c-0.4-0.5-0.8-0.9-1.2-1.4
			c-1.5-1.6-4.3-1.5-5.8,0S449.1,1207.4,450.8,1208.9L450.8,1208.9z"/>
	</g>
</g>
<g>
	<g>
		<path d="M474,1075.7c0,0.9,0.1,1.8,0.1,2.7c0.1,2.4,1.9,4.3,4.3,4.3s4.2-2,4.3-4.3c0-0.9,0.1-1.8,0.1-2.7c0.1-2.4-2.1-4.5-4.5-4.5
			C476.1,1071.3,473.9,1073.3,474,1075.7L474,1075.7z"/>
	</g>
</g>
<g>
	<g>
		<path d="M689.4,1832.7c4.4,0,4.4-6.8,0-6.8C685,1825.9,685,1832.7,689.4,1832.7L689.4,1832.7z"/>
	</g>
</g>
<g>
	<g>
		<path d="M663.9,1611.2L663.9,1611.2c0.1-0.3,0.2-0.6,0.4-0.9l0,0c0.4-0.4,0.9-0.9,1.3-1.3c-0.9,0.5-1.8,0.9-2.6,1.7
			c-0.8,0.8-0.8,2.3,0,3.1c0.7,0.7,1.7,1.2,2.6,1.7c-0.4-0.4-0.9-0.9-1.3-1.3l0,0c-0.1-0.3-0.3-0.6-0.4-0.9c0.6,3,4.5,3.7,6.5,1.8
			c1.8-1.8,1.4-4.9-0.8-6.1C667.6,1607.6,664.4,1608.7,663.9,1611.2L663.9,1611.2z"/>
	</g>
</g>
<g>
	<g>
		<path d="M416.5,1611.1c6.5,0,6.5-10.1,0-10.1C409.9,1600.9,409.9,1611.1,416.5,1611.1L416.5,1611.1z"/>
	</g>
</g>
<g>
	<g>
		<path d="M379.3,1449.2c5.7,0,5.7-8.9,0-8.9S373.5,1449.2,379.3,1449.2L379.3,1449.2z"/>
	</g>
</g>
<g>
	<g>
		<path d="M534.4,1667.9c0.5,0.4,0.9,0.9,1.4,1.3c0.3,0.3,0.7,0.6,1,1c0.1,0.1,0.3,0.3,0.4,0.4c0.9,0.9,1.8,1.2,3.1,1.4
			c2.1,0.2,4.3-2,4.1-4.1c-0.1-1.3-0.4-2.1-1.3-3.1c-0.1-0.1-0.2-0.3-0.4-0.4c-0.3-0.4-0.7-0.7-1-1.1c-0.4-0.5-0.9-0.9-1.3-1.4
			c-1.6-1.7-4.4-1.6-6,0C532.8,1663.5,532.7,1666.3,534.4,1667.9L534.4,1667.9z"/>
	</g>
</g>
<g>
	<g>
		<path d="M791.7,1793.7c-0.7,0-1.4,0.1-2,0c0.4,0.1,0.8,0.1,1.2,0.2c-0.6-0.1-1.1-0.2-1.7-0.3c0.4,0.1,0.8,0.1,1.2,0.2
			c-0.1,0-0.1,0-0.2,0c0.3,0.1,0.7,0.3,1,0.4c-0.1,0-0.1-0.1-0.2-0.1c0.3,0.2,0.6,0.4,0.9,0.7c-0.1-0.1-0.2-0.1-0.2-0.2
			c0.2,0.3,0.4,0.5,0.6,0.8c-0.2-0.2-0.3-0.5-0.4-0.7c-0.8-1.4-2.4-2.4-4.1-1.9c-2.2,0.7-2.8,2.9-3.1,4.9c-0.1,0.9,0.3,1.8,0.6,2.6
			c0.5,1.3,1.8,1.9,3,2.3c1,0.4,2.4,0.4,3.5,0.4c2.5,0.1,4.6-2.2,4.6-4.6C796.3,1795.9,794.2,1793.6,791.7,1793.7L791.7,1793.7z"/>
	</g>
</g>
<g>
	<g>
		<path d="M581.7,1590.6c1.3-0.4,2.8-0.7,3.7-1.7c0.8-0.9,0.8-2.1,0-3c-0.9-1-2.5-1.3-3.7-1.7c-2.1-0.7-4.2,1.1-4.2,3.2
			S579.6,1591.3,581.7,1590.6L581.7,1590.6z"/>
	</g>
</g>
<g>
	<g>
		<g>
			<path d="M974.2,1075c7.2,6.5,14.8,12.6,21.8,19.5c7.1,7,13.7,14.5,20,22.3c13.2,16.3,24.4,34.3,34.1,53
				c20.6,39.5,34,82.5,42.6,126.1c7.6,39,11.1,78.9,10.3,118.6c-0.3,18.4-1.9,36.7-4.2,54.9c-2.2,17.4-6.1,34.4-9.1,51.6
				c-0.3,1.6,1.7,2.1,2.3,0.6c7.4-17.9,10.7-37.2,13.4-56.3c2.9-20.7,3.8-41.7,3.8-62.6c0-44.5-5.7-89-16.3-132.2
				c-9.7-39.4-24-78-44.1-113.4c-9.4-16.7-20.3-32.7-32.7-47.3c-11.6-13.6-24.9-27.7-40.2-37.1C974.5,1072,972.9,1073.9,974.2,1075
				L974.2,1075z"/>
		</g>
	</g>
	<g>
		<g>
			<path d="M1005.6,1025.9c40.3,2.7,79.6,12.4,116.1,29.6c38,17.9,72.4,42.9,103.4,71.2c65.3,59.8,116.5,134.9,155.3,214.1
				c27.8,56.8,47.8,116.4,61.6,178c0.5,2.1,3.9,1.6,3.7-0.5c-3.8-37.1-15-73.4-27.9-108.3c-14.8-40-33.4-78.5-54.6-115.5
				c-43.4-75.7-99-146.3-168.8-199.4c-53.5-40.7-120.2-72.9-188.8-70.4C1004.9,1024.8,1004.9,1025.8,1005.6,1025.9L1005.6,1025.9z"
				/>
		</g>
	</g>
	<g>
		<g>
			<path d="M1111.4,1171.8c6.9,9.5,12.9,20,19,30.1c5.9,9.9,11.6,19.9,16.9,30.2c10.4,20.2,19.5,41.1,26.9,62.6
				c7.3,21.2,13,43,17.4,65c4.6,23.4,6.2,47.3,10.5,70.7c0.3,1.7,2.8,1.2,2.9-0.4c1.2-23.4-2.7-47.5-7-70.4
				c-4.2-22.6-10.1-44.9-17.7-66.6c-7.5-21.4-16.8-42.2-27.6-62.2c-5.5-10.1-11.4-20-17.7-29.6c-6.9-10.5-14.7-20.1-22-30.3
				C1112.2,1170.1,1110.8,1171,1111.4,1171.8L1111.4,1171.8z"/>
		</g>
	</g>
	<g>
		<g>
			<path d="M1135.8,1123.4c39.5,38.8,84.5,73.1,117.3,118.2c17.5,24.1,30.7,50.6,40.2,78.7c9.2,27.3,15,55.6,21.6,83.6
				c4.9,20.5,10.1,40.8,18.4,60.3c0.5,1.3,2.6,0.4,2.2-0.9c-8.3-27.8-14.7-56-20.7-84.3s-12.7-56.5-24-83.3
				c-10.9-26-26.2-50.3-44.1-72c-17.4-21.2-37.7-39.7-58.3-57.8c-16.9-14.8-34.5-28.8-51.2-43.8
				C1136.2,1121.3,1135,1122.5,1135.8,1123.4L1135.8,1123.4z"/>
		</g>
	</g>
	<g>
		<g>
			<path d="M1238.8,1315.1c13.6,20.4,25,42.3,34.2,65c4.7,11.6,8.5,23.5,11.9,35.6c3.3,11.9,5.3,24.1,8.4,36.1
				c0.4,1.5,2.7,1.2,2.7-0.4c0-24.7-9.2-50-18.5-72.5c-9.6-23-22-44.8-36.5-65.1C1240.1,1312.5,1237.9,1313.7,1238.8,1315.1
				L1238.8,1315.1z"/>
		</g>
	</g>
	<g>
		<g>
			<path d="M1006,1590c-5.3-1.8-11.1-2.7-16.2-5.4c-4.7-2.5-8.4-6.5-11.3-11c-6.4-10.1-8.2-22.6-7.5-34.3
				c0.7-11.9,4.8-24.1,12.8-33.1c3.8-4.3,8.7-7.6,14.1-9.7c6.7-2.6,13.4-2.6,20.3-3.5c1.7-0.2,2.1-3.1,0.5-3.8
				c-13.1-5.6-28.7-0.1-38.5,9.1c-9.8,9.3-15,22.9-16.7,36.1c-3,23.8,6.4,57.4,34.7,60c2.8,0.2,5.4-0.7,7.9-1.8
				C1007.5,1592,1007,1590.4,1006,1590L1006,1590z"/>
		</g>
	</g>
	<g>
		<g>
			<path d="M1022.1,1520.6c-2.8-3.8-3.8-10.5-3.9-15.1c0-5.1,1.7-10.3,4.1-14.8c2.7-4.9,6.7-8.9,11.4-11.9
				c4.8-3.1,11.5-4.2,15.8-7.9c0.8-0.7,0.6-2.3-0.4-2.8c-6-3-14.2,0.7-19.4,4c-5.8,3.7-10.6,8.9-13.9,14.9
				c-3.2,5.6-4.8,12.1-4.4,18.6c0.2,2.9,0.7,6.2,2,8.9c1.7,3.4,4,5.3,6.4,8.1C1020.9,1523.7,1023.1,1522,1022.1,1520.6
				L1022.1,1520.6z"/>
		</g>
	</g>
	<g>
		<g>
			<path d="M1028.5,1477.8c-6.5-8.5-11.7-17.7-10.7-28.7c1-10.3,7.6-19.6,15.2-26.3c7.7-6.7,18-10.9,28.2-10.9
				c13.1,0,22,8.3,31.2,16.5c1.7,1.5,3.9-0.4,3-2.3c-5.5-12.7-19-20.5-32.4-21.6c-12.7-1.1-25.2,4.4-34.8,12.4
				c-18.8,15.5-27.4,49.4-2.4,63.6C1027.5,1481.3,1029.7,1479.4,1028.5,1477.8L1028.5,1477.8z"/>
		</g>
	</g>
	<g>
		<g>
			<path d="M1433.2,1419.4c5.9-6.9,14.4-13.5,24-11.6c9.3,1.9,16.9,9.5,22.4,16.8c7.1,9.3,12.2,20.2,15.4,31.4
				c1.6,5.7,2.7,11.6,3,17.5c0.2,4.4-0.8,11.7,1.7,15.5c0.6,1,2,1.5,3,0.8c4.5-3.1,4.8-11.4,4.6-16.3c-0.3-6.7-1.6-13.5-3.4-19.9
				c-3.8-13.4-10.4-26.2-19.3-36.9c-7.1-8.6-16.6-15.8-27.9-17.1c-12.4-1.5-21.5,7.1-26.9,17.3
				C1428.7,1418.9,1431.5,1421.4,1433.2,1419.4L1433.2,1419.4z"/>
		</g>
	</g>
	<g>
		<g>
			<path d="M1476.6,1470.9c5.8,3.2,11.2,5.8,16,10.4c5.2,5,9.2,11.2,12.4,17.6c3.5,6.8,5.8,14.2,7.8,21.5c1.8,6.5,2.8,13.8,5.8,19.8
				c0.5,1.1,2.3,0.8,2.5-0.3c1.7-7.1-0.2-15.6-2-22.6c-2-8-5.1-15.8-8.9-23.1c-6.2-11.9-18.3-26.6-33.1-26.2
				C1475.9,1468.2,1475.2,1470.2,1476.6,1470.9L1476.6,1470.9z"/>
		</g>
	</g>
	<g>
		<g>
			<path d="M1511.7,1498.6c9.2-5.9,19-6.5,28,0c9.3,6.8,15.2,18.6,18.7,29.2c8.4,25.1,5.4,53.5-15.2,71.6c-1.1,1,0.1,3,1.5,2.5
				c30.7-10.4,29.1-53.3,20.5-77.9c-4.4-12.5-11.6-25.1-23.1-32.2c-10.9-6.7-23.3-4.6-32.5,3.9
				C1507.9,1497.2,1509.9,1499.8,1511.7,1498.6L1511.7,1498.6z"/>
		</g>
	</g>
	<g>
		<g>
			<path d="M1447.3,1516.9c12.4-3.9,22.3,4.6,29.1,14.2c4.2,5.9,7.1,12.6,8.9,19.6c1.7,6.6,1.3,13.2,2.2,19.9c0.3,1.9,3,1.9,3.8,0.5
				c4.2-6.9,2.6-16.2,0.7-23.5c-2.1-8.2-6.2-16.1-11.4-22.8c-7.9-10.1-22.9-20.4-35-10.7C1444.3,1515.2,1445.8,1517.4,1447.3,1516.9
				L1447.3,1516.9z"/>
		</g>
	</g>
	<g>
		<g>
			<path d="M1406.8,1490.9c1.5-12.8-5.2-25.3-14.8-33.3c-4.7-4-10.4-6.9-16.4-8.5c-5.3-1.4-13.1-2.5-17.8,1c-0.7,0.6-1.1,1.9,0,2.4
				c4.4,2.1,9.9,1.7,14.7,2.9c5.2,1.3,10.3,3.7,14.6,7.1c9.3,7.2,12.9,17.8,14.7,29.1C1402.3,1494.7,1406.5,1493.6,1406.8,1490.9
				L1406.8,1490.9z"/>
		</g>
	</g>
	<g>
		<g>
			<path d="M1356.9,1469.6c1.7-12.6-2.8-22.7-10.6-32.5c-6.9-8.5-18.6-18.2-30.2-17.4c-1.3,0.1-1.6,1.5-0.6,2.2
				c8.5,6.5,17.7,10.8,25,18.9c6.8,7.7,12.2,18.9,13.9,29.1C1354.6,1471.6,1356.7,1471,1356.9,1469.6L1356.9,1469.6z"/>
		</g>
	</g>
	<g>
		<g>
			<path d="M1121.8,1494.1c1.9-6.1,2.4-12.5,4.7-18.5c2.4-6.4,6.8-12.4,11.8-17.1c4.8-4.4,11-7.2,17.5-7.6
				c7.1-0.4,13.3,2.6,19.9,4.7c1.1,0.4,2.2-1,1.5-2c-9.4-13.9-29.1-11.8-41-2.6c-6.5,5-11.1,11.5-14.2,19.1
				c-3,7.3-4.9,16.8-1.2,24.1C1121,1494.7,1121.7,1494.6,1121.8,1494.1L1121.8,1494.1z"/>
		</g>
	</g>
	<g>
		<g>
			<path d="M1168.4,1467c1.4-8.6,4.6-17.1,9.2-24.4c2.5-4,5.8-7.5,9.3-10.6c3.7-3.3,8.6-5.9,11.6-9.8c0.8-1,0.4-2.9-1.2-2.8
				c-9.6,0.5-18.3,10.5-23.6,17.6c-6.4,8.7-9.8,19-8.4,29.7C1165.5,1468.2,1168.1,1468.9,1168.4,1467L1168.4,1467z"/>
		</g>
	</g>
	<g>
		<g>
			<path d="M1222.5,1434.6c6.6-4,14.2-5.5,21.3-2c8.1,3.9,11.6,12.5,15.5,19.9c1,1.8,4.2,1.1,4-1.1c-2.2-20.7-26.4-35.4-42.9-19.5
				C1219.1,1433.3,1220.9,1435.6,1222.5,1434.6L1222.5,1434.6z"/>
		</g>
	</g>
	<g>
		<path class="st0" d="M897.4,990.3c-47.8,50.3-20.1,134.5,6.6,168c5.6,7,0.5,15.6-9.8,9.5c-143.2-85-111.2-245-111.2-245
			s7.3,6.3,48.1,33.5C871.8,983.5,897.4,990.3,897.4,990.3z"/>
		<path class="st0" d="M976.4,921.4c56.3-40.6,136-1.6,165.5,29.3c6.2,6.5,15.4,2.6,10.7-8.4C1087.9,789,925.1,798.9,925.1,798.9
			s5.2,8.1,26.6,52.2C973.2,895.1,976.4,921.4,976.4,921.4z"/>
		<path class="st0" d="M560.8,524.3c-21.3,18.6,19.4,162.1,19.4,162.1l135.4-118.1C715.7,568.2,582.2,505.7,560.8,524.3z"/>
		<polygon class="st0" points="1014.5,968.7 936.3,1036.8 893.5,1005.9 989.7,922 		"/>
		<path class="st0" d="M715.7,568.2l-67.7,59l-67.7,59c54.8,122.3,122.6,227.1,313.2,319.6l96.2-83.9
			C924,720.5,829.4,639.1,715.7,568.2z"/>
		<g>
			<path class="st0" d="M679.8,663.8c-31.5,27.5-34.8,75.3-7.3,106.9c27.5,31.5,75.3,34.8,106.9,7.3c31.5-27.5,34.8-75.3,7.3-106.9
				C759.2,639.5,711.3,636.3,679.8,663.8z M764.4,760.8c-22,19.2-55.5,17-74.7-5.1c-19.2-22-16.9-55.5,5.1-74.8
				c22-19.2,55.5-16.9,74.8,5.1C788.7,708.1,786.4,741.5,764.4,760.8z"/>
			<path class="st0" d="M769.5,686c19.2,22.1,16.9,55.5-5.1,74.8c-22,19.2-55.5,17-74.7-5.1c-19.2-22-16.9-55.5,5.1-74.8
				C716.8,661.7,750.3,664,769.5,686z"/>
			<path class="st0" d="M721.7,773.2l44.4-90.8c-7.4-7.1-16.5-11.6-26-13.5l-45,92.1C702.8,767.7,712.1,771.8,721.7,773.2z"/>
		</g>
		<g>
			<path class="st0" d="M943.3,1030.7l64.1-55.9c112.6,60.6,98.3,169.8,98.3,169.8C978.6,1149.1,943.3,1030.7,943.3,1030.7z"/>
			<path class="st0" d="M997.3,983.6l-44,38.3c17.6,26.6,52.7,66.7,107.6,74.7C1061,1096.6,1058,1036.3,997.3,983.6z"/>
			<path class="st0" d="M1018.3,1049.6c0,0-3.9-27.5-29.6-58.5l-26.6,23.2C975.6,1029,994.5,1043.8,1018.3,1049.6z"/>
		</g>
	</g>
</g>
</svg>
